<svg width="16" height="16" viewBox="0 0 16 16" fill="none" xmlns="http://www.w3.org/2000/svg">
<path  d="M12 8C14.2091 8 16 9.79086 16 12C16 14.2091 14.2091 16 12 16C9.79086 16 8 14.2091 8 12C8 9.79086 9.79086 8 12 8ZM13.5136 1C13.759 1 13.9632 1.17688 14.0055 1.41012L14.0136 1.5V6.49725C14.0136 6.7734 13.7897 6.99725 13.5136 6.99725C13.2681 6.99725 13.064 6.82038 13.0216 6.58713L13.0136 6.49725V2H2V14.0018H6.84087C7.11701 14.0018 7.34087 14.2256 7.34087 14.5018C7.34087 14.7472 7.16399 14.9514 6.93074 14.9937L6.84087 15.0018H1.5C1.25454 15.0018 1.05039 14.8249 1.00806 14.5916L1 14.5018V1.5C1 1.25454 1.17688 1.05039 1.41012 1.00806L1.5 1H13.5136ZM12.0073 9C10.3505 9 9.00734 10.3431 9.00734 12C9.00734 13.6569 10.3505 15 12.0073 15C13.6642 15 15.0073 13.6569 15.0073 12C15.0073 10.3431 13.6642 9 12.0073 9ZM11.5073 10C11.7835 10 12.0073 10.2239 12.0073 10.5V12H13.5073C13.7835 12 14.0073 12.2239 14.0073 12.5C14.0073 12.7761 13.7835 13 13.5073 13H11.5073C11.2312 13 11.0073 12.7761 11.0073 12.5V10.5C11.0073 10.2239 11.2312 10 11.5073 10ZM6.50614 7.99832C6.78228 7.99832 7.00614 8.22218 7.00614 8.49832C7.00614 8.77446 6.78228 8.99832 6.50614 8.99832H3.50614C3.23 8.99832 3.00614 8.77446 3.00614 8.49832C3.00614 8.22218 3.23 7.99832 3.50614 7.99832H6.50614ZM11.5061 5.99725C11.7823 5.99725 12.0061 6.22111 12.0061 6.49725C12.0061 6.7734 11.7823 6.99725 11.5061 6.99725H3.50614C3.23 6.99725 3.00614 6.7734 3.00614 6.49725C3.00614 6.22111 3.23 5.99725 3.50614 5.99725H11.5061ZM11.5061 3.99619C11.7823 3.99619 12.0061 4.22005 12.0061 4.49619C12.0061 4.77233 11.7823 4.99619 11.5061 4.99619H3.50614C3.23 4.99619 3.00614 4.77233 3.00614 4.49619C3.00614 4.22005 3.23 3.99619 3.50614 3.99619H11.5061Z" fill="black"/>
</svg>
