<svg width="16" height="16" viewBox="0 0 16 16"  xmlns="http://www.w3.org/2000/svg">
<path  clip-rule="evenodd" d="M8.48177 1.5C8.75791 1.5 8.98177 1.72386 8.98177 2L8.981 7.997L15 7.99798C15.2761 7.99798 15.5 8.22183 15.5 8.49798C15.5 8.77412 15.2761 8.99798 15 8.99798L8.981 8.997L8.98177 15C8.98177 15.2761 8.75791 15.5 8.48177 15.5C8.20562 15.5 7.98177 15.2761 7.98177 15L7.981 8.997L2 8.99798C1.72386 8.99798 1.5 8.77412 1.5 8.49798C1.5 8.22183 1.72386 7.99798 2 7.99798L7.981 7.997L7.98177 2C7.98177 1.72386 8.20562 1.5 8.48177 1.5Z" />
</svg>
