<svg width="16" height="16" viewBox="0 0 16 16"  xmlns="http://www.w3.org/2000/svg">
<path d="M7.58956 9.17005L6.65013 8.86716L8.91385 6.60311L8.50593 8.52968L9.44569 8.83257L7.18164 11.0963L7.58956 9.17005ZM7.89213 0.199997H7.97154C8.05646 0.199997 8.1379 0.233731 8.19795 0.293778C8.25799 0.353825 8.29173 0.435266 8.29173 0.520185V1.88098C8.29173 1.9659 8.25799 2.04734 8.19795 2.10739C8.1379 2.16744 8.05646 2.20117 7.97154 2.20117H7.89213C7.85009 2.20117 7.80845 2.19289 7.7696 2.1768C7.73076 2.16071 7.69546 2.13712 7.66573 2.10739C7.636 2.07766 7.61241 2.04236 7.59632 2.00351C7.58023 1.96467 7.57195 1.92303 7.57195 1.88098V0.520185C7.57195 0.478137 7.58023 0.436501 7.59632 0.397654C7.61241 0.358807 7.636 0.32351 7.66573 0.293778C7.69546 0.264046 7.73076 0.240461 7.7696 0.22437C7.80845 0.208279 7.85009 0.199997 7.89213 0.199997ZM3.34707 1.56047L3.41623 1.52077C3.48977 1.47831 3.57717 1.46681 3.65919 1.48878C3.74121 1.51076 3.81115 1.56442 3.85361 1.63796L4.53401 2.81625C4.57646 2.88979 4.58797 2.97718 4.56599 3.05921C4.54402 3.14123 4.49036 3.21117 4.41682 3.25363L4.34766 3.29365C4.27412 3.33611 4.18672 3.34761 4.1047 3.32564C4.02268 3.30366 3.95274 3.25 3.91028 3.17646L3.22988 1.99785C3.18743 1.92431 3.17592 1.83692 3.1979 1.75489C3.21987 1.67287 3.27353 1.60293 3.34707 1.56047ZM0.0965265 5.31019L0.13655 5.24135C0.179011 5.16781 0.248945 5.11415 0.330968 5.09218C0.412992 5.0702 0.500386 5.0817 0.573926 5.12416L1.75222 5.80456C1.82576 5.84702 1.87941 5.91696 1.90139 5.99898C1.92337 6.081 1.91186 6.1684 1.86941 6.24194L1.8297 6.31078C1.78724 6.38432 1.71731 6.43798 1.63528 6.45995C1.55326 6.48193 1.46587 6.47042 1.39233 6.42797L0.214035 5.74757C0.177596 5.72657 0.14565 5.6986 0.120023 5.66525C0.0943958 5.63191 0.0755889 5.59384 0.0646767 5.55322C0.0537645 5.51261 0.0509607 5.47024 0.0564256 5.42854C0.0618905 5.38684 0.0755169 5.34662 0.0965265 5.31019ZM12.4474 1.52077L12.5166 1.56047C12.5901 1.60293 12.6438 1.67287 12.6658 1.75489C12.6878 1.83692 12.6763 1.92431 12.6338 1.99785L11.9534 3.17614C11.9324 3.21258 11.9044 3.24453 11.8711 3.27015C11.8377 3.29578 11.7997 3.31459 11.759 3.3255C11.7184 3.33641 11.6761 3.33922 11.6344 3.33375C11.5927 3.32829 11.5525 3.31466 11.516 3.29365L11.4469 3.25363C11.3733 3.21117 11.3197 3.14123 11.2977 3.05921C11.2757 2.97718 11.2872 2.88979 11.3297 2.81625L12.0101 1.63796C12.0525 1.56442 12.1225 1.51076 12.2045 1.48878C12.2865 1.46681 12.3739 1.47831 12.4474 1.52077ZM15.7934 5.16835L15.8331 5.23751C15.8756 5.31105 15.8871 5.39844 15.8651 5.48047C15.8431 5.56249 15.7895 5.63242 15.7159 5.67488L14.5373 6.35528C14.4638 6.39774 14.3764 6.40925 14.2943 6.38727C14.2123 6.36529 14.1424 6.31163 14.0999 6.23809L14.0602 6.16893C14.0178 6.09539 14.0063 6.008 14.0282 5.92598C14.0502 5.84395 14.1039 5.77402 14.1774 5.73156L15.3557 5.05116C15.4292 5.0087 15.5166 4.9972 15.5987 5.01917C15.6807 5.04115 15.7509 5.09481 15.7934 5.16835Z" />
<rect x="1.25" y="14.4819" width="13.5" height="0.5" rx="0.25" fill="#D8D8D8" stroke="black"/>
<mask id="path-3-inside-1" fill="white">
<path  d="M8 3.23193C5.23858 3.23193 3 5.47051 3 8.23193V15.2319H4V8.23193C4 6.02279 5.79086 4.23193 8 4.23193C10.2091 4.23193 12 6.02279 12 8.23193V15.2319H13V8.23193C13 5.47051 10.7614 3.23193 8 3.23193Z"/>
</mask>
<path  d="M8 3.23193C5.23858 3.23193 3 5.47051 3 8.23193V15.2319H4V8.23193C4 6.02279 5.79086 4.23193 8 4.23193C10.2091 4.23193 12 6.02279 12 8.23193V15.2319H13V8.23193C13 5.47051 10.7614 3.23193 8 3.23193Z" fill="#C4C4C4"/>
<path d="M3 15.2319H2V16.2319H3V15.2319ZM4 15.2319V16.2319H5V15.2319H4ZM12 15.2319H11V16.2319H12V15.2319ZM13 15.2319V16.2319H14V15.2319H13ZM4 8.23193C4 6.02279 5.79086 4.23193 8 4.23193V2.23193C4.68629 2.23193 2 4.91823 2 8.23193H4ZM4 15.2319V8.23193H2V15.2319H4ZM4 14.2319H3V16.2319H4V14.2319ZM5 15.2319V8.23193H3V15.2319H5ZM5 8.23193C5 6.57508 6.34315 5.23193 8 5.23193V3.23193C5.23858 3.23193 3 5.47051 3 8.23193H5ZM8 5.23193C9.65685 5.23193 11 6.57508 11 8.23193H13C13 5.47051 10.7614 3.23193 8 3.23193V5.23193ZM11 8.23193V15.2319H13V8.23193H11ZM13 14.2319H12V16.2319H13V14.2319ZM12 8.23193V15.2319H14V8.23193H12ZM8 4.23193C10.2091 4.23193 12 6.02279 12 8.23193H14C14 4.91822 11.3137 2.23193 8 2.23193V4.23193Z"  mask="url(#path-3-inside-1)"/>
</svg>
