<svg width="16" height="16" viewBox="0 0 16 16" fill="none" xmlns="http://www.w3.org/2000/svg">
<path d="M7.50012 2.50018C7.50012 2.22403 7.27547 1.99818 7.00012 2.01911C3.64327 2.27436 1 5.07831 1 8.49988C1 12.0896 3.90953 15 7.50012 15C10.9216 15 13.7256 12.356 13.9809 8.99987C14.0018 8.72453 13.776 8.49988 13.4998 8.49988H8.00012C7.72397 8.49988 7.50012 8.27602 7.50012 7.99988V2.50018ZM12.9091 9.50006C12.4376 12.0571 10.1914 13.9998 7.50012 13.9998C4.46747 13.9998 2.00018 11.5325 2.00018 8.49988C2.00018 5.80859 3.94288 3.56282 6.49994 3.09094V8.50006C6.49994 9.05234 6.94766 9.50006 7.49994 9.50006H12.9091ZM8.99987 1.01895C8.72453 0.997998 8.49988 1.22386 8.49988 1.5V7.00012C8.49988 7.27626 8.72374 7.50012 8.99988 7.50012H14.5C14.7761 7.50012 15.002 7.27547 14.9811 7.00013C14.7383 3.80898 12.191 1.26172 8.99987 1.01895ZM9.50006 2.09118C11.7331 2.50294 13.4971 4.26735 13.9092 6.49994H9.50006V2.09118Z" fill="black"/>
</svg>
