<svg width="16" height="16" viewBox="0 0 16 16"  xmlns="http://www.w3.org/2000/svg">
<path  clip-rule="evenodd" d="M14.8547 7.64825L13.3547 6.14825C13.2109 6.0045 12.9969 5.96231 12.8094 6.04043C12.6219 6.11856 12.5 6.29981 12.5 6.50293V7.50293H8.50156V3.50137H9.50156C9.70312 3.50137 9.88594 3.3795 9.96406 3.192C10.0422 3.0045 9.99844 2.79043 9.85625 2.64668L8.35625 1.14668C8.16094 0.95137 7.84375 0.95137 7.64844 1.14668L6.14844 2.64668C6.00469 2.79043 5.9625 3.0045 6.04063 3.192C6.11875 3.3795 6.3 3.50137 6.50156 3.50137H7.50156V7.50137H3.50156V6.50137C3.50156 6.29981 3.37969 6.117 3.19219 6.03887C3.00469 5.96075 2.79062 6.0045 2.64688 6.14668L1.14687 7.64668C1.05312 7.74043 1 7.86856 1 7.99981C1 8.13106 1.05312 8.26075 1.14687 8.35293L2.64688 9.85293C2.79062 9.99668 3.00469 10.0389 3.19219 9.96074C3.37969 9.88262 3.50156 9.70137 3.50156 9.49825V8.49825H7.50156V12.4982H6.50156C6.3 12.4982 6.11719 12.6201 6.03906 12.8076C5.96094 12.9951 6.00469 13.2092 6.14687 13.3529L7.64687 14.8529C7.74062 14.9467 7.86875 14.9998 8 14.9998C8.13125 14.9998 8.26094 14.9467 8.35313 14.8529L9.85312 13.3529C9.99687 13.2092 10.0391 12.9951 9.96094 12.8076C9.88281 12.6201 9.70156 12.4982 9.49844 12.4982H8.49844V8.50137H12.4984V9.50137C12.4984 9.70293 12.6203 9.88575 12.8078 9.96387C12.9953 10.042 13.2094 9.99825 13.3531 9.85606L14.8531 8.35606C14.9469 8.26231 15 8.13418 15 8.00293C15.0016 7.87012 14.9484 7.74043 14.8547 7.64825Z" />
</svg>
