<svg width="16" height="16" viewBox="0 0 16 16" fill="none" xmlns="http://www.w3.org/2000/svg">
<path opacity="0.8" fill-rule="evenodd" clip-rule="evenodd" d="M11.5 6.99844C13.9853 6.99844 16 9.01316 16 11.4984C16 13.9837 13.9853 15.9984 11.5 15.9984C9.01472 15.9984 7 13.9837 7 11.4984C7 9.01316 9.01472 6.99844 11.5 6.99844ZM11.5 7.99844C9.567 7.99844 8 9.56544 8 11.4984C8 13.4314 9.567 14.9984 11.5 14.9984C13.433 14.9984 15 13.4314 15 11.4984C15 9.56544 13.433 7.99844 11.5 7.99844ZM11.4995 8.99844C11.7451 8.99844 11.9488 9.17481 11.991 9.40805L11.999 9.49795V10.9965H13.4976C13.7739 10.9965 13.9971 11.2197 13.9971 11.496C13.9971 11.7416 13.8207 11.9453 13.5875 11.9875L13.4976 11.9955H11.4995C11.2539 11.9955 11.0503 11.8191 11.008 11.5859L11 11.496V9.49795C11 9.22166 11.2232 8.99844 11.4995 8.99844ZM3.7879 1H10.1984C10.5044 1.00137 10.7912 1.14017 10.9815 1.37459L11.057 1.48078L12.8552 4.1282L12.8974 4.21093C12.9551 4.29522 12.9863 4.39512 12.9863 4.49659L12.9848 4.54341L12.9879 4.62927V5.49463C12.9879 5.77093 12.7647 5.99415 12.4884 5.99415C12.2428 5.99415 12.0391 5.81778 11.9969 5.58453L11.9889 5.49463V4.9961H8.99278V6.99473C8.99278 7.12585 8.94127 7.25229 8.84761 7.34595C8.67417 7.52078 8.40452 7.54021 8.2097 7.40532L8.14049 7.34751L6.99473 6.20176L5.84898 7.34751C5.70537 7.49112 5.49151 7.53327 5.30419 7.45522C5.14364 7.38832 5.03125 7.24573 5.00241 7.07856L4.99512 6.99317V4.9961H1.99902V10.9893H5.49366C5.76995 10.9893 5.99317 11.2125 5.99317 11.4888C5.99317 11.7344 5.8168 11.938 5.58356 11.9803L5.49366 11.9883H1.99902C1.48736 11.9883 1.06453 11.602 1.00673 11.1056L1 10.9893L1.00098 4.59102L1.00312 4.55278C1.00156 4.53405 1 4.51532 1 4.49659C1 4.39044 1.03278 4.28898 1.09522 4.20312L1.13834 4.1198L2.93249 1.4839C3.08956 1.22166 3.35898 1.04785 3.65812 1.0085L3.7879 1H10.1984H3.7879ZM8.99122 1.99902V3.99707H11.5565L10.2096 2.01678L10.2 2.00059L8.99122 1.99902ZM7.9922 1.99902H5.99415V5.78654L6.63883 5.14029C6.81366 4.96685 7.08222 4.94758 7.27679 5.08248L7.34595 5.14029L7.9922 5.78654V1.99902ZM4.99356 3.99707V1.99902H3.78634L3.76605 2.0318L2.42985 3.99707H4.99356Z" fill="black"/>
</svg>
