<svg width="16" height="16" viewBox="0 0 16 16"  xmlns="http://www.w3.org/2000/svg">
<path  clip-rule="evenodd" d="M7.18934 8L3.21967 11.9697C2.92678 12.2626 2.92678 12.7374 3.21967 13.0303C3.51256 13.3232 3.98744 13.3232 4.28033 13.0303L8.78033 8.53033C9.07322 8.23744 9.07322 7.76256 8.78033 7.46967L4.28033 2.96967C3.98744 2.67678 3.51256 2.67678 3.21967 2.96967C2.92678 3.26256 2.92678 3.73744 3.21967 4.03033L7.18934 8Z" />
<path  clip-rule="evenodd" d="M12.1893 8L8.21967 11.9697C7.92678 12.2626 7.92678 12.7374 8.21967 13.0303C8.51256 13.3232 8.98744 13.3232 9.28033 13.0303L13.7803 8.53033C14.0732 8.23744 14.0732 7.76256 13.7803 7.46967L9.28033 2.96967C8.98744 2.67678 8.51256 2.67678 8.21967 2.96967C7.92678 3.26256 7.92678 3.73744 8.21967 4.03033L12.1893 8Z" />
</svg>
