<svg width="16" height="16" viewBox="0 0 16 16"  xmlns="http://www.w3.org/2000/svg">
<path  clip-rule="evenodd" d="M3.81066 8L7.78033 4.03033C8.07322 3.73744 8.07322 3.26256 7.78033 2.96967C7.48744 2.67678 7.01256 2.67678 6.71967 2.96967L2.21967 7.46967C1.92678 7.76256 1.92678 8.23744 2.21967 8.53033L6.71967 13.0303C7.01256 13.3232 7.48744 13.3232 7.78033 13.0303C8.07322 12.7374 8.07322 12.2626 7.78033 11.9697L3.81066 8Z" />
<path  clip-rule="evenodd" d="M8.81066 8L12.7803 4.03033C13.0732 3.73744 13.0732 3.26256 12.7803 2.96967C12.4874 2.67678 12.0126 2.67678 11.7197 2.96967L7.21967 7.46967C6.92678 7.76256 6.92678 8.23744 7.21967 8.53033L11.7197 13.0303C12.0126 13.3232 12.4874 13.3232 12.7803 13.0303C13.0732 12.7374 13.0732 12.2626 12.7803 11.9697L8.81066 8Z" />
</svg>
