<svg width="16" height="16" viewBox="0 0 16 16" fill="none" xmlns="http://www.w3.org/2000/svg">
<path fill-rule="evenodd" clip-rule="evenodd" d="M6.57636 2.83739C6.77162 2.64214 7.08818 2.64214 7.28344 2.83739C7.4787 3.03266 7.47869 3.34925 7.2834 3.5445L2.82516 8.00186L14.3819 8.00266C14.658 8.00268 14.8819 8.22653 14.8819 8.50266C14.8819 8.77882 14.658 9.00268 14.3818 9.00266L2.82516 9.00186L7.28351 13.4609C7.47874 13.6561 7.47872 13.9727 7.28347 14.168C7.0882 14.3632 6.77161 14.3632 6.57635 14.168L1.26461 8.85625C1.09104 8.68269 1.07176 8.41326 1.20676 8.21839L1.26461 8.14915L6.57636 2.83739Z" fill="black"/>
</svg>
