<svg width="16" height="16" viewBox="0 0 16 16"  xmlns="http://www.w3.org/2000/svg">
<path  clip-rule="evenodd" d="M6.00928 11.6801C5.45616 11.6801 5.00772 11.2317 5.00928 10.6786C5.00928 10.613 5.01553 10.5473 5.02803 10.4833L5.35147 8.86765C5.35147 8.86609 5.35147 8.86452 5.35303 8.86296C5.39209 8.67077 5.48741 8.49421 5.62647 8.35515L12.1537 2.12433C12.5443 1.73527 13.1756 1.73527 13.5677 2.12277L14.8615 3.41652C15.2521 3.80714 15.2521 4.44152 14.8615 4.83214L8.33272 11.063C8.19366 11.2036 8.01397 11.2989 7.82022 11.338L6.20616 11.6614C6.14053 11.6739 6.07491 11.6801 6.00928 11.6801ZM6.00928 10.6801L7.62491 10.3567L14.1537 4.12433L12.8631 2.83214L6.33272 9.06296C6.33272 9.06452 6.33272 9.06609 6.33116 9.06765L6.00928 10.6801ZM3.00928 15.161H13.0093C13.5608 15.161 14.0077 14.7141 14.0093 14.161V9.16096C14.0093 8.8844 13.7858 8.66096 13.5093 8.66096C13.2327 8.66096 13.0093 8.8844 13.0093 9.16096V14.161H3.00928V3.16096H8.00928C8.28584 3.16096 8.50928 2.93752 8.50928 2.66096C8.50928 2.3844 8.28584 2.16096 8.00928 2.16096H3.00928C2.45771 2.16096 2.00928 2.6094 2.00928 3.16096V14.161C2.00928 14.7125 2.45771 15.161 3.00928 15.161Z" />
</svg>
