<svg width="16" height="16" viewBox="0 0 16 16"  xmlns="http://www.w3.org/2000/svg">
<path  d="M11.5 4.00696C11.7761 4.00696 12 4.23082 12 4.50696V6.995L13 6.99543C14.1046 6.99543 15 7.89086 15 8.99543V13.9954C15 14.5477 14.5523 14.9954 14 14.9954H3C2.44772 14.9954 2 14.5477 2 13.9954V8.99543C2 7.89086 2.89543 6.99543 4 6.99543L5 6.995V4.50696C5 4.23082 5.22386 4.00696 5.5 4.00696C5.77614 4.00696 6 4.23082 6 4.50696V6.995H8V4.50696C8 4.23082 8.22386 4.00696 8.5 4.00696C8.77614 4.00696 9 4.23082 9 4.50696V6.995H11V4.50696C11 4.23082 11.2239 4.00696 11.5 4.00696ZM14 10.9954L3 10.995V13.9954H14V10.9954ZM13 7.99543H4C3.44772 7.99543 3 8.44315 3 8.99543V9.995L14 9.99543V8.99543C14 8.44315 13.5523 7.99543 13 7.99543ZM11.4837 1.47C11.7598 1.47 11.9837 1.69386 11.9837 1.97V2.47C11.9837 2.74614 11.7598 2.97 11.4837 2.97C11.2075 2.97 10.9837 2.74614 10.9837 2.47V1.97C10.9837 1.69386 11.2075 1.47 11.4837 1.47ZM8.5 1.47C8.77614 1.47 9 1.69386 9 1.97V2.47C9 2.74614 8.77614 2.97 8.5 2.97C8.22386 2.97 8 2.74614 8 2.47V1.97C8 1.69386 8.22386 1.47 8.5 1.47ZM5.5 1.47C5.77614 1.47 6 1.69386 6 1.97V2.47C6 2.74614 5.77614 2.97 5.5 2.97C5.22386 2.97 5 2.74614 5 2.47V1.97C5 1.69386 5.22386 1.47 5.5 1.47Z" />
</svg>
