<svg width="16" height="16" viewBox="0 0 16 16"  xmlns="http://www.w3.org/2000/svg">
<path d="M15 4.58385V12.0214C14.8924 13.6839 11.7664 14.9963 8 14.9963C4.12598 14.9963 1.11809 13.6838 1.0105 12.0213V4.14634C0.795272 2.39633 3.91601 0.996338 7.89765 0.996338C11.8793 0.996338 15 2.39633 15 4.14634V4.58385ZM7.89765 2C4.02363 2 2 3.18387 2 4.23387C2 5.28388 4.55642 6.42135 8 6.42135C11.4436 6.42135 14 5.28385 14 4.23386C14 3.18387 11.7717 2 7.89765 2ZM14 5.98388C12.7087 6.85886 10.5827 7.38387 8 7.38387C5.52492 7.38387 3.18373 6.85886 2 5.98388V6.50887C2.32284 7.64636 4.98687 8.52136 8 8.52136C11.0131 8.52136 13.6772 7.55888 14 6.50887V5.98388ZM14 7.99637C12.8163 8.87137 10.5827 9.39637 8 9.39637C5.52492 9.39637 3.29135 8.78387 2 7.99637V8.43386C2.32284 9.57135 5.09449 10.4464 8 10.4464C11.0131 10.4464 13.6772 9.48387 14 8.43386V7.99637ZM14 9.83387C12.8163 10.7089 10.5827 11.2339 8 11.2339C5.52492 11.2339 3.18373 10.7089 2 9.83387V10.2714C2.32284 11.4089 5.09449 12.2839 8 12.2839C11.0131 12.2839 13.6772 11.3214 14 10.2714V9.83387ZM14 11.7589C12.8163 12.6339 10.5827 13.1589 8 13.1589C5.52492 13.1589 3.18373 12.6339 2 11.7589V12.0214C2.21523 13.1589 4.87926 14 8 14C11.0131 14 13.8924 13.1589 14 12.0214V11.7589Z" />
</svg>
