<svg width="16" height="16" viewBox="0 0 16 16"  xmlns="http://www.w3.org/2000/svg">
<path  d="M11.5157 1C11.7918 1 12.0157 1.22386 12.0157 1.5L12.015 2H14C14.5523 2 15 2.44772 15 3V14C15 14.5523 14.5523 15 14 15H2C1.44772 15 1 14.5523 1 14V3C1 2.44772 1.44772 2 2 2H3.991L3.99144 1.5C3.99144 1.22386 4.2153 1 4.49144 1C4.76758 1 4.99144 1.22386 4.99144 1.5L4.991 2H11.015L11.0157 1.5C11.0157 1.22386 11.2396 1 11.5157 1ZM14 6H2V14H14V6ZM11.5 11C11.7761 11 12 11.2239 12 11.5C12 11.7761 11.7761 12 11.5 12H10.5C10.2239 12 10 11.7761 10 11.5C10 11.2239 10.2239 11 10.5 11H11.5ZM8.5 11C8.77614 11 9 11.2239 9 11.5C9 11.7761 8.77614 12 8.5 12H7.5C7.22386 12 7 11.7761 7 11.5C7 11.2239 7.22386 11 7.5 11H8.5ZM5.5 11C5.77614 11 6 11.2239 6 11.5C6 11.7761 5.77614 12 5.5 12H4.5C4.22386 12 4 11.7761 4 11.5C4 11.2239 4.22386 11 4.5 11H5.5ZM11.5 8C11.7761 8 12 8.22386 12 8.5C12 8.77614 11.7761 9 11.5 9H10.5C10.2239 9 10 8.77614 10 8.5C10 8.22386 10.2239 8 10.5 8H11.5ZM8.5 8C8.77614 8 9 8.22386 9 8.5C9 8.77614 8.77614 9 8.5 9H7.5C7.22386 9 7 8.77614 7 8.5C7 8.22386 7.22386 8 7.5 8H8.5ZM5.5 8C5.77614 8 6 8.22386 6 8.5C6 8.77614 5.77614 9 5.5 9H4.5C4.22386 9 4 8.77614 4 8.5C4 8.22386 4.22386 8 4.5 8H5.5ZM3.991 3H2V5H14V3H12.015L12.0157 3.5C12.0157 3.77614 11.7918 4 11.5157 4C11.2396 4 11.0157 3.77614 11.0157 3.5L11.015 3H4.991L4.99144 3.5C4.99144 3.77614 4.76758 4 4.49144 4C4.2153 4 3.99144 3.77614 3.99144 3.5L3.991 3Z" />
</svg>
