<svg width="16" height="16" viewBox="0 0 16 16"  xmlns="http://www.w3.org/2000/svg">
<path  d="M13.5063 1C13.7517 1 13.9559 1.17688 13.9982 1.41012L14.0063 1.5V6.49725C14.0063 6.7734 13.7824 6.99725 13.5063 6.99725C13.2608 6.99725 13.0567 6.82038 13.0143 6.58713L13.0063 6.49725V2H1.99268V14.0018H6.83354C7.10968 14.0018 7.33354 14.2256 7.33354 14.5018C7.33354 14.7472 7.15667 14.9514 6.92342 14.9937L6.83354 15.0018H1.49268C1.24722 15.0018 1.04307 14.8249 1.00073 14.5916L0.992676 14.5018V1.5C0.992676 1.25454 1.16955 1.05039 1.4028 1.00806L1.49268 1H13.5063ZM9.85357 8.64645L12.073 10.866L14.2678 8.67157C14.463 8.47631 14.7796 8.47631 14.9749 8.67157C15.1701 8.86684 15.1701 9.18342 14.9749 9.37868L12.78 11.573L14.8033 13.5962C14.9986 13.7915 14.9986 14.108 14.8033 14.3033C14.6081 14.4986 14.2915 14.4986 14.0962 14.3033L12.073 12.28L10.0251 14.3284C9.82988 14.5237 9.51329 14.5237 9.31803 14.3284C9.12277 14.1332 9.12277 13.8166 9.31803 13.6213L11.366 11.573L9.14646 9.35355C8.9512 9.15829 8.9512 8.84171 9.14646 8.64645C9.34172 8.45118 9.6583 8.45118 9.85357 8.64645ZM6.49882 7.99832C6.77496 7.99832 6.99882 8.22218 6.99882 8.49832C6.99882 8.77446 6.77496 8.99832 6.49882 8.99832H3.49882C3.22267 8.99832 2.99882 8.77446 2.99882 8.49832C2.99882 8.22218 3.22267 7.99832 3.49882 7.99832H6.49882ZM11.4988 5.99725C11.775 5.99725 11.9988 6.22111 11.9988 6.49725C11.9988 6.7734 11.775 6.99725 11.4988 6.99725H3.49882C3.22267 6.99725 2.99882 6.7734 2.99882 6.49725C2.99882 6.22111 3.22267 5.99725 3.49882 5.99725H11.4988ZM11.4988 3.99619C11.775 3.99619 11.9988 4.22005 11.9988 4.49619C11.9988 4.77233 11.775 4.99619 11.4988 4.99619H3.49882C3.22267 4.99619 2.99882 4.77233 2.99882 4.49619C2.99882 4.22005 3.22267 3.99619 3.49882 3.99619H11.4988Z" />
</svg>
