<svg width="16" height="16" viewBox="0 0 16 16"  xmlns="http://www.w3.org/2000/svg">
<path  d="M14.8433 9.88321L10.8396 13.8537C10.6435 14.0481 10.3269 14.0468 10.1325 13.8507C9.95961 13.6765 9.95961 13.3401 10.1325 13.1436L13.2769 10.0282H2.50635C2.23021 10.0282 2.00635 9.80433 2.00635 9.52818C2.00635 9.28272 2.22575 9.02818 2.48506 9.02818H14.4912C14.9079 9.02818 15.1837 9.50408 14.8433 9.88321L10.8396 13.8537L14.8433 9.88321ZM2.15956 6.17322L6.16328 2.20273C6.35935 2.00828 6.67593 2.0096 6.87038 2.20568C7.04322 2.37996 7.04322 2.71633 6.87038 2.91278L3.72589 6.02824H14.4965C14.7726 6.02824 14.9965 6.2521 14.9965 6.52824C14.9965 6.7737 14.7771 7.02824 14.5178 7.02824H2.51163C2.09494 7.02824 1.8191 6.55235 2.15956 6.17322L6.16328 2.20273L2.15956 6.17322Z" />
</svg>
