<svg width="16" height="16" viewBox="0 0 16 16" fill="none" xmlns="http://www.w3.org/2000/svg">
<path fill-rule="evenodd" clip-rule="evenodd" d="M13.6047 0.999756C14.329 0.999756 14.9259 1.55597 14.9936 2.2616L15 2.39556V13.6044C15 14.3291 14.4439 14.9261 13.7382 14.9938L13.6042 15.0002H2.39491C1.67073 14.9996 1.07408 14.4434 1.00639 13.7379L1 13.604V2.39509C1 1.67077 1.55622 1.07387 2.26184 1.00615L2.3958 0.999756H13.6047ZM13.6047 1.93309H2.3958C2.17079 1.93309 1.98039 2.09791 1.94086 2.31251L1.93333 2.39509V13.604C1.93333 13.829 2.09826 14.0196 2.31279 14.0593L2.39533 14.0669H13.6042C13.8292 14.0669 14.0196 13.902 14.0591 13.6871L14.0667 13.6044V2.39556C14.0667 2.17054 13.9018 1.98015 13.6872 1.94061L13.6047 1.93309ZM11.2457 8.93356C11.3356 8.92925 11.4246 8.95342 11.5 9.00262C11.612 9.07449 11.6871 9.19069 11.7179 9.31949C11.7503 9.4515 11.7337 9.59076 11.6713 9.71149L10.2713 11.4736C10.142 11.7219 9.8564 11.8068 9.63333 11.6636C9.41027 11.5203 9.33373 11.203 9.46253 10.9547L10.2559 9.95602H4.7786C4.49612 9.95602 4.26713 9.72703 4.26713 9.44456C4.26713 9.16208 4.49612 8.93307 4.7786 8.93307L11.2457 8.93356ZM6.36667 4.33642C6.58973 4.47969 6.66627 4.79702 6.53747 5.04529L5.74413 6.04396H11.2219C11.4046 6.04396 11.5734 6.14144 11.6648 6.29969C11.7562 6.45794 11.7562 6.65291 11.6648 6.81116C11.5734 6.9694 11.4046 7.06691 11.2219 7.06691L4.7548 7.06642C4.6644 7.07073 4.5754 7.04656 4.5 6.99736C4.38911 6.92389 4.311 6.81032 4.28207 6.68049C4.24974 6.54848 4.26632 6.40922 4.32873 6.28849L5.7292 4.52636C5.858 4.27809 6.1436 4.19316 6.36667 4.33642Z" fill="black"/>
</svg>
