<svg width="16" height="16" viewBox="0 0 16 16"  xmlns="http://www.w3.org/2000/svg">
<path  clip-rule="evenodd" d="M13.6875 5.25C14.1042 5.25 14.4476 5.56366 14.4945 5.96775L14.5 6.0625V14.1547C14.5 14.3791 14.3181 14.561 14.0938 14.561C14.0015 14.561 13.912 14.5296 13.84 14.472L12.4679 13.375H5.4853C5.09999 13.375 4.77254 13.1055 4.69178 12.7373L4.67683 12.6433L4.58669 11.75H11.3205C12.1189 11.75 12.7922 11.1716 12.9228 10.3961L12.9388 10.2721L13.395 5.25H13.6875ZM11.9853 2C12.434 2 12.7978 2.36377 12.7978 2.8125L12.7944 2.88606L12.1297 10.1986C12.0916 10.6171 11.7407 10.9375 11.3205 10.9375H4.42337L2.16632 12.8197C2.11157 12.8654 2.04611 12.8955 1.97671 12.9077L1.90625 12.9139C1.70681 12.9139 1.54094 12.7702 1.50655 12.5807L1.5 12.5076V2.8125C1.5 2.36377 1.86377 2 2.3125 2H11.9853ZM8.50041 6.20868C8.33843 6.40305 8.11777 6.55407 7.84924 6.66507C7.46479 6.824 7.08229 6.875 6.78125 6.875C6.48021 6.875 6.09771 6.824 5.71326 6.66507C5.44473 6.55407 5.22407 6.40305 5.06209 6.20868C4.91845 6.03631 4.66229 6.01302 4.48992 6.15666C4.31756 6.3003 4.29427 6.55646 4.43791 6.72883C4.691 7.03253 5.01992 7.25764 5.40286 7.41595C5.90587 7.62388 6.38301 7.6875 6.78125 7.6875C7.17949 7.6875 7.65663 7.62388 8.15964 7.41595C8.54258 7.25764 8.8715 7.03253 9.12459 6.72883C9.26823 6.55646 9.24494 6.3003 9.07257 6.15666C8.90021 6.01302 8.64405 6.03631 8.50041 6.20868Z" />
</svg>
