<svg width="16" height="16" viewBox="0 0 16 16"  xmlns="http://www.w3.org/2000/svg">
<path  d="M8 1C11.866 1 15 4.13401 15 8C15 11.866 11.866 15 8 15C4.13401 15 1 11.866 1 8C1 4.13401 4.13401 1 8 1ZM8 2C4.68629 2 2 4.68629 2 8C2 11.3137 4.68629 14 8 14C11.3137 14 14 11.3137 14 8C14 4.68629 11.3137 2 8 2ZM5.14645 5.14645C5.32001 4.97288 5.58944 4.9536 5.78431 5.08859L5.85355 5.14645L7.97558 7.26706L10.0962 5.14645L10.1654 5.08859C10.3603 4.9536 10.6297 4.97288 10.8033 5.14645C10.9769 5.32001 10.9962 5.58944 10.8612 5.78431L10.8033 5.85355L8.68198 7.97487L10.8033 10.0962L10.8612 10.1654C10.9962 10.3603 10.9769 10.6297 10.8033 10.8033C10.6297 10.9769 10.3603 10.9962 10.1654 10.8612L10.0962 10.8033L7.97487 8.68198L5.85355 10.8033L5.78431 10.8612C5.58944 10.9962 5.32001 10.9769 5.14645 10.8033C4.97288 10.6297 4.9536 10.3603 5.08859 10.1654L5.14645 10.0962L7.26777 7.97487L5.14645 5.85355L5.08859 5.78431C4.9536 5.58944 4.97288 5.32001 5.14645 5.14645Z" />
</svg>
