<svg width="16" height="16" viewBox="0 0 16 16"  xmlns="http://www.w3.org/2000/svg">
<path  clip-rule="evenodd" d="M11.126 4.20416C11.311 4.01919 11.6109 4.01919 11.7959 4.20416C11.9809 4.38914 11.9809 4.68905 11.7959 4.87402L8.66989 8.00003L11.7959 11.126C11.9809 11.311 11.9809 11.6109 11.7959 11.7959C11.6109 11.9809 11.311 11.9809 11.126 11.7959L8.00003 8.66989L4.87402 11.7959C4.68904 11.9809 4.38914 11.9809 4.20416 11.7959C4.01919 11.6109 4.01919 11.311 4.20416 11.126L7.33017 8.00003L4.20416 4.87402C4.01919 4.68904 4.01919 4.38914 4.20416 4.20416C4.38914 4.01919 4.68905 4.01919 4.87402 4.20416L8.00003 7.33017L11.126 4.20416Z"/>
</svg>
