<svg width="12" height="12" viewBox="0 0 12 12" fill="none" xmlns="http://www.w3.org/2000/svg">
<path fill-rule="evenodd" clip-rule="evenodd" d="M6 12C9.31371 12 12 9.31371 12 6C12 2.68629 9.31371 0 6 0C2.68629 0 0 2.68629 0 6C0 9.31371 2.68629 12 6 12ZM8.66654 8.66648C8.85071 8.48231 8.85071 8.18373 8.66654 7.99956L6.66675 5.99976L8.66648 4.00044C8.85067 3.81628 8.85069 3.51767 8.66651 3.33349C8.48233 3.14931 8.18372 3.14933 7.99956 3.33352L6.00024 5.33325L4.00044 3.33346C3.81627 3.14929 3.51769 3.14929 3.33352 3.33346C3.14933 3.51765 3.14936 3.81629 3.33359 4.00044L5.33373 5.99976L3.33352 7.99956C3.14933 8.18372 3.14931 8.48233 3.33349 8.66651C3.51767 8.85069 3.81628 8.85067 4.00044 8.66648L6.00024 6.66627L7.99956 8.66641C8.18371 8.85064 8.48235 8.85067 8.66654 8.66648Z" fill="#B7B7B7"/>
</svg>
