<svg width="16" height="16" viewBox="0 0 16 16"  xmlns="http://www.w3.org/2000/svg">
<path  clip-rule="evenodd" d="M13.6467 2.14645C13.8419 1.95118 14.1585 1.95118 14.3538 2.14645C14.549 2.34171 14.549 2.65829 14.3538 2.85355L9.20734 8L14.6675 13.4602C14.8628 13.6554 14.8628 13.972 14.6675 14.1673C14.4722 14.3625 14.1557 14.3625 13.9604 14.1673L8.50023 8.70711L3.04008 14.1673C2.84481 14.3625 2.52823 14.3625 2.33297 14.1673C2.13771 13.972 2.13771 13.6554 2.33297 13.4602L7.79313 8L2.64668 2.85355C2.45142 2.65829 2.45142 2.34171 2.64668 2.14645C2.84194 1.95118 3.15852 1.95118 3.35379 2.14645L8.50023 7.29289L13.6467 2.14645Z" />
</svg>
