<svg width="16" height="16" viewBox="0 0 16 16" fill="none" xmlns="http://www.w3.org/2000/svg">
<path d="M8 10C9.10457 10 10 9.10457 10 8C10 6.89543 9.10457 6 8 6C6.89543 6 6 6.89543 6 8C6 9.10457 6.89543 10 8 10ZM8 9C7.44772 9 7 8.55229 7 8C7 7.44772 7.44772 7 8 7C8.55229 7 9 7.44772 9 8C9 8.55229 8.55229 9 8 9Z" fill="currentColor"/>
<path d="M1 8C1 7.72386 1.22386 7.5 1.5 7.5H4.5C4.77614 7.5 5 7.72386 5 8C5 8.27614 4.77614 8.5 4.5 8.5H1.5C1.22386 8.5 1 8.27614 1 8Z" fill="currentColor"/>
<path d="M11 8C11 7.72386 11.2239 7.5 11.5 7.5H14.5C14.7761 7.5 15 7.72386 15 8C15 8.27614 14.7761 8.5 14.5 8.5H11.5C11.2239 8.5 11 8.27614 11 8Z" fill="currentColor"/>
</svg>
