<svg width="16" height="16" viewBox="0 0 16 16" fill="none" xmlns="http://www.w3.org/2000/svg">
<path fill-rule="evenodd" clip-rule="evenodd" d="M15 3C15 2.44772 14.5523 2 14 2H2C1.44772 2 1 2.44772 1 3V11C1 11.5523 1.44772 12 2 12H3V13.7929C3 13.9255 3.05268 14.0527 3.14645 14.1464C3.34171 14.3417 3.65829 14.3417 3.85355 14.1464L6 12H14C14.5523 12 15 11.5523 15 11V3ZM2 3H14V11H5.58579L4 12.5858V11H2V3ZM8.5 7C8.77614 7 9 7.22386 9 7.5C9 7.77614 8.77614 8 8.5 8H4.5C4.22386 8 4 7.77614 4 7.5C4 7.22386 4.22386 7 4.5 7H8.5ZM12 5.5C12 5.22386 11.7761 5 11.5 5H4.5C4.22386 5 4 5.22386 4 5.5C4 5.77614 4.22386 6 4.5 6H11.5C11.7761 6 12 5.77614 12 5.5Z" fill="black"/>
</svg>
