<svg width="16" height="16" viewBox="0 0 16 16"  xmlns="http://www.w3.org/2000/svg">
<path  clip-rule="evenodd" d="M12.0004 8.29419L14.1109 9.14587C14.5968 9.3203 15.0002 9.79252 15.0002 10.3096L15.0045 11.0969C15.0045 11.6611 14.5673 12.0063 14.0041 12.0063H13.6571C13.6468 11.9645 13.6365 11.9215 13.6261 11.8776C13.5535 11.5728 13.4713 11.2276 13.2794 10.9925H14.0041V10.3096C14.0041 10.2103 13.9564 10.0611 13.8022 10.0057C13.7945 10.003 11.6965 9.14587 11.6965 9.14587C11.639 9.11502 11.5767 9.0841 11.5115 9.05173C11.2808 8.93727 11.0137 8.80475 10.799 8.59373C10.5316 8.33095 10.4029 7.99999 10.4029 7.54503C10.4029 7.37569 10.7508 6.61534 10.9509 6.31324L11.0178 6.21211C11.3355 5.72984 11.751 4.97035 11.751 4.4187C11.751 3.73038 11.5401 3.09123 11.1572 2.61899C10.8196 2.20262 10.3876 1.9733 9.93366 1.97341C9.68538 1.67875 9.40828 1.42692 9.10603 1.22073C9.36915 1.11632 9.64963 1.05969 9.94088 1.05969C11.4451 1.05969 12.6646 2.5637 12.6646 4.41868C12.6646 5.32138 12.1027 6.15466 11.7385 6.69466C11.6182 6.87317 11.5194 7.01963 11.4697 7.12596C11.45 7.16798 11.4302 7.20595 11.4112 7.24237C11.3417 7.37559 11.2829 7.48811 11.2829 7.70238C11.2829 7.97524 12.0004 8.29419 12.0004 8.29419ZM11.8437 10.6574C11.8437 10.6574 9.00322 9.27199 8.80986 9.08193C8.68556 8.95976 8.69987 8.69555 8.80986 8.32737C8.83911 8.22945 8.93593 8.06241 9.06231 7.84438C9.41112 7.24261 9.98508 6.2524 9.98508 5.25473C9.98508 3.15566 8.86013 1.48723 7.00793 1.48723C5.15573 1.48723 3.88365 3.15553 3.88365 5.25473C3.88365 6.34764 4.67997 7.61694 5.02258 8.16305L5.02259 8.16306C5.08807 8.26744 5.13697 8.34539 5.16058 8.39065C5.30782 8.67274 5.272 9.10264 5.15573 9.23285C4.98117 9.42847 1.99022 10.6733 1.99022 10.6733C1.4405 10.8708 1.00977 11.3893 1.00977 11.9742V13C1.00977 13.5523 1.45748 14 2.00977 14H12.0061C12.5584 14 13.0061 13.5523 13.0061 13V11.9742C13.0061 11.3892 12.3935 10.8548 11.8437 10.6574ZM11.9869 12.987C11.9552 13.0139 1.99959 12.987 1.99959 12.987V12.0156C1.99959 11.8439 2.08841 11.6088 2.29912 11.5331C2.32041 11.5254 2.34143 11.517 2.3621 11.5078C2.3621 11.5078 5.49499 10.1397 5.76665 9.83532C6.19964 9.35036 6.2436 8.49116 5.97046 7.9679C5.92439 7.87958 5.86165 7.78358 5.76665 7.63826C5.7465 7.60743 5.71762 7.56596 5.68226 7.51516C5.40614 7.11861 4.73465 6.15419 4.73465 5.25485C4.73465 4.44841 4.9828 3.69823 5.43338 3.14249C5.83865 2.64263 6.45296 2.37234 6.99535 2.37234C7.53781 2.37234 8.09489 2.64263 8.50021 3.14249C8.95083 3.69822 9.15618 4.44848 9.15618 5.25485C9.15618 6.13376 8.51118 7.16838 8.17514 7.70742C8.09487 7.83617 8.03223 7.93666 8.00021 7.99999C7.72805 8.53839 7.78514 9.37174 8.16763 9.74769C8.46334 10.0383 11.5119 11.5087 11.5119 11.5087C11.5196 11.5116 11.5272 11.5145 11.535 11.5173C11.7421 11.5917 11.9869 11.838 11.9869 12.0156C11.9869 12.0156 11.9953 12.9799 11.9869 12.987Z" />
</svg>
