<svg width="16" height="16" viewBox="0 0 16 16"  xmlns="http://www.w3.org/2000/svg">
<path  clip-rule="evenodd" d="M4.5 1C4.77614 1 5 1.22386 5 1.5L4.999 3.594L12 3.59411C12.091 3.59411 12.1791 3.60625 12.2628 3.629L14.0459 1.8473C14.2412 1.65204 14.5578 1.65204 14.753 1.8473C14.9483 2.04257 14.9483 2.35915 14.753 2.55441L12.9678 4.3414C12.9888 4.42212 13 4.50681 13 4.59411V11.594L15.1156 11.5941C15.3917 11.5941 15.6156 11.818 15.6156 12.0941C15.6156 12.3702 15.3917 12.5941 15.1156 12.5941L13 12.594V15.0941C13 15.3702 12.7761 15.5941 12.5 15.5941C12.2239 15.5941 12 15.3702 12 15.0941V12.594L5 12.5941C4.44772 12.5941 4 12.1464 4 11.5941L3.999 4.594L1.5 4.59411C1.22386 4.59411 1 4.37025 1 4.09411C1 3.81796 1.22386 3.59411 1.5 3.59411L3.999 3.594L4 1.5C4 1.22386 4.22386 1 4.5 1ZM12 5.307L5.712 11.594H12V5.307ZM11.298 4.594H4.999V10.893L11.298 4.594Z" />
</svg>
