<svg width="16" height="16" viewBox="0 0 16 16"  xmlns="http://www.w3.org/2000/svg">
<path d="M8.07812 13.599L7.57812 13.725V12H8.57812V13.73L8.07812 13.599ZM8.07812 3C7.94552 3 7.81834 2.94732 7.72457 2.85355C7.6308 2.75979 7.57812 2.63261 7.57812 2.5V1.5C7.57812 1.36739 7.6308 1.24021 7.72457 1.14645C7.81834 1.05268 7.94552 1 8.07812 1C8.21073 1 8.33791 1.05268 8.43168 1.14645C8.52545 1.24021 8.57812 1.36739 8.57812 1.5V2.5C8.57812 2.63261 8.52545 2.75979 8.43168 2.85355C8.33791 2.94732 8.21073 3 8.07812 3Z" />
<path d="M11 15.5C10.9502 15.5001 10.9006 15.4927 10.853 15.478L8.076 14.622L5.185 15.48C5.05783 15.5178 4.92085 15.5035 4.8042 15.4403C4.68756 15.3771 4.60079 15.2702 4.563 15.143C4.52521 15.0158 4.53948 14.8789 4.60268 14.7622C4.66588 14.6456 4.77283 14.5588 4.9 14.521L7.936 13.62C8.03083 13.5926 8.13155 13.5933 8.226 13.622L11.148 14.523C11.2632 14.5575 11.362 14.6324 11.4264 14.734C11.4907 14.8355 11.5162 14.9569 11.4982 15.0758C11.4802 15.1946 11.4199 15.303 11.3284 15.3809C11.2368 15.4589 11.1202 15.5012 11 15.5ZM13.5 12H2.5C1.673 12 1 11.327 1 10.5V3.5C1 2.673 1.673 2 2.5 2H13.5C14.327 2 15 2.673 15 3.5V10.5C15 11.327 14.327 12 13.5 12ZM2.5 3C2.225 3 2 3.225 2 3.5V10.5C2 10.775 2.225 11 2.5 11H13.5C13.775 11 14 10.775 14 10.5V3.5C14 3.225 13.775 3 13.5 3H2.5Z" />
<path d="M6.57797 9.109C6.44531 9.10902 6.31804 9.05653 6.22397 8.963L3.11497 5.854C3.02389 5.7597 2.97349 5.6334 2.97463 5.5023C2.97577 5.3712 3.02835 5.2458 3.12106 5.15309C3.21376 5.06039 3.33917 5.0078 3.47026 5.00666C3.60136 5.00552 3.72766 5.05592 3.82197 5.147L6.57797 7.903L9.25596 5.225C9.34973 5.13127 9.47688 5.07861 9.60947 5.07861C9.74205 5.07861 9.8692 5.13127 9.96297 5.225L12.94 8.202C13.031 8.2963 13.0814 8.4226 13.0803 8.5537C13.0792 8.6848 13.0266 8.81021 12.9339 8.90291C12.8412 8.99561 12.7158 9.0482 12.5847 9.04934C12.4536 9.05048 12.3273 9.00008 12.233 8.909L9.60897 6.285L6.93197 8.963C6.88551 9.00949 6.83032 9.04633 6.76956 9.07139C6.7088 9.09644 6.64369 9.10923 6.57797 9.109Z" />
</svg>
