<svg width="16" height="16" viewBox="0 0 16 16"  xmlns="http://www.w3.org/2000/svg">
<path  d="M2.5 2C2.77614 2 3 2.22386 3 2.5V14H14.5C14.7761 14 15 14.2239 15 14.5C15 14.7761 14.7761 15 14.5 15H2.5C2.22386 15 2 14.7761 2 14.5V2.5C2 2.22386 2.22386 2 2.5 2ZM14.3177 4.61391C14.5072 4.76987 14.5525 5.03617 14.437 5.24318L14.3861 5.3177L10.7861 9.6927C10.6209 9.89343 10.3346 9.93062 10.1258 9.79322L10.0515 9.7335L8.64094 8.36216L5.38609 12.3177C5.21063 12.5309 4.89553 12.5616 4.6823 12.3861C4.49276 12.2301 4.44751 11.9638 4.56302 11.7568L4.61391 11.6823L8.21391 7.3073C8.37908 7.10657 8.66539 7.06938 8.87424 7.20678L8.94854 7.2665L10.3591 8.63784L13.6139 4.6823C13.7894 4.46907 14.1045 4.43845 14.3177 4.61391Z" />
</svg>
