<svg width="16" height="16" viewBox="0 0 16 16"  xmlns="http://www.w3.org/2000/svg">
<g id="3.&#231;&#138;&#182;&#230;&#128;&#129;&#229;&#155;&#190;&#230;&#160;&#135;/16x16/decline">
<path id="Vector"  d="M8.47651 13.1037L8.40723 13.1616C8.23665 13.2796 8.00906 13.2794 7.83862 13.1612L7.7694 13.1033L3.14624 8.47464C3.05303 8.38132 3.00047 8.25495 3 8.12306C2.99914 7.8776 3.17529 7.67283 3.40839 7.62968L3.49824 7.6213L6.64001 7.60998L6.63962 3.5C6.63962 3.22386 6.86348 3 7.13962 3H9.13962C9.41576 3 9.63962 3.22386 9.63962 3.5L9.64001 7.59998L12.7732 7.58864C12.8797 7.58827 12.9827 7.62184 13.0679 7.6834L13.1282 7.73473C13.3019 7.90812 13.3215 8.17752 13.1867 8.37253L13.1289 8.44183L8.47651 13.1037L8.40723 13.1616L8.47651 13.1037Z" />
</g>
</svg>
