<svg width="16" height="16" viewBox="0 0 16 16" fill="none" xmlns="http://www.w3.org/2000/svg">
<path fill-rule="evenodd" clip-rule="evenodd" d="M8 1C11.866 1 15 4.13401 15 8C15 11.866 11.866 15 8 15C4.13401 15 1 11.866 1 8C1 4.13401 4.13401 1 8 1ZM8 2C4.68629 2 2 4.68629 2 8C2 11.3137 4.68629 14 8 14C11.3137 14 14 11.3137 14 8C14 4.68629 11.3137 2 8 2ZM6.50005 3.99634C6.70008 3.99636 6.88085 4.11559 6.95961 4.29947L9.49988 10.2299L10.5404 7.79955C10.6191 7.61562 10.7999 7.49634 11 7.49634H13C13.2761 7.49634 13.5 7.7202 13.5 7.99634C13.5 8.27248 13.2761 8.49634 13 8.49634H11.3298L9.95965 11.6968C9.88091 11.8807 9.70011 12 9.50005 12C9.29998 12 9.11917 11.8808 9.04039 11.6969L6.49988 5.76591L5.45957 8.1933C5.38078 8.37714 5.20001 8.49634 5 8.49634H3C2.72386 8.49634 2.5 8.27248 2.5 7.99634C2.5 7.7202 2.72386 7.49634 3 7.49634H4.6703L6.04043 4.29938C6.11922 4.11552 6.30002 3.99632 6.50005 3.99634Z" fill="black"/>
</svg>
