<svg width="16" height="16" viewBox="0 0 16 16"  xmlns="http://www.w3.org/2000/svg">
<path  clip-rule="evenodd" d="M14 2C14.5523 2 15 2.44772 15 3V13C15 13.5523 14.5523 14 14 14H2C1.44772 14 1 13.5523 1 13V3C1 2.44772 1.44772 2 2 2H14ZM14 3H2V13H14V3ZM3.3143 5.03576C3.5707 4.9332 3.86168 5.05791 3.96424 5.3143L5.5 9.15371L7.03576 5.3143C7.11169 5.12448 7.29555 5 7.5 5C7.70445 5 7.88831 5.12448 7.96424 5.3143L9.5 9.15371L11.0358 5.3143C11.1383 5.05791 11.4293 4.9332 11.6857 5.03576C11.9421 5.13832 12.0668 5.4293 11.9642 5.6857L9.96424 10.6857C9.88831 10.8755 9.70445 11 9.5 11C9.29555 11 9.11169 10.8755 9.03576 10.6857L7.5 6.84629L5.96424 10.6857C5.88831 10.8755 5.70445 11 5.5 11C5.29555 11 5.11169 10.8755 5.03576 10.6857L3.03576 5.6857C2.9332 5.4293 3.05791 5.13832 3.3143 5.03576Z" />
<circle cx="12.25" cy="10.25" r="0.75" />
</svg>
