<svg width="16" height="16" viewBox="0 0 16 16"  xmlns="http://www.w3.org/2000/svg">
<path  d="M14.5069 9.00825C14.7524 9.00825 14.9565 9.18512 14.9989 9.41837L15.0069 9.50825V13.5086C15.0069 13.754 14.83 13.9582 14.5968 14.0005L14.5069 14.0086H1.5C1.25454 14.0086 1.05039 13.8317 1.00806 13.5985L1 13.5086V9.50825C1 9.2321 1.22386 9.00825 1.5 9.00825C1.74546 9.00825 1.94961 9.18512 1.99194 9.41837L2 9.50825V13.0086H14.0069V9.50825C14.0069 9.2321 14.2308 9.00825 14.5069 9.00825ZM8 2C8.2576 2 8.46667 2.2086 8.46667 2.46667V9.6006L10.4654 7.2682C10.6497 7.0848 10.9479 7.0848 11.1313 7.2682C11.3157 7.45253 11.3157 7.75027 11.1313 7.9346L8.33413 11.198L8.31687 11.2055C8.25702 11.2611 8.18299 11.301 8.1003 11.3193L8.01213 11.3305C7.88707 11.3343 7.76107 11.2937 7.6654 11.198L4.8682 7.9346C4.68433 7.75027 4.68433 7.45253 4.8682 7.2682C5.05207 7.0848 5.35027 7.0848 5.53413 7.2682L7.53333 9.6006V2.46667C7.53333 2.2086 7.74193 2 8 2Z" />
</svg>
