<svg width="16" height="16" viewBox="0 0 16 16"  xmlns="http://www.w3.org/2000/svg">
<path  d="M13.7698 4.53554L11.6485 2.41422L9.52719 4.53554L11.6485 6.65686L13.7698 4.53554ZM10.9414 7.36396L8.82009 5.24264L2.71213 11.3506L2.5 13.684L4.83345 13.4719L10.9414 7.36396ZM12.3556 1.70711L14.4769 3.82843C14.8675 4.21895 14.8675 4.85212 14.4769 5.24264L5.54056 14.179C5.37514 14.3444 5.15696 14.4466 4.92399 14.4678L2.59054 14.6799C2.04052 14.7299 1.55411 14.3246 1.50411 13.7746C1.49863 13.7144 1.49863 13.6537 1.50411 13.5935L1.71624 11.2601C1.73742 11.0271 1.83961 10.8089 2.00503 10.6435L10.9414 1.70711C11.3319 1.31658 11.9651 1.31658 12.3556 1.70711Z" />
</svg>
