<svg width="16" height="16" viewBox="0 0 16 16" fill="none" xmlns="http://www.w3.org/2000/svg">
<path fill-rule="evenodd" clip-rule="evenodd" d="M6.50692 2C7.08218 2 7.87391 2.44054 8.51774 2.86712C9.60884 2.25801 10.1605 2 10.522 2H14.0032C14.5555 2 15.0032 2.44772 15.0032 3V12.9196C15.0032 13.4719 14.5555 13.9196 14.0032 13.9196H10.5075C10.1709 13.9196 8.93829 14.7893 8.51098 14.7893C8.08366 14.7893 6.91914 13.9196 6.51058 13.9196H3.00003C2.44773 13.9196 2 13.4719 2 12.9196V3C2 2.44772 2.44772 2 3 2L6.50692 2ZM14.0032 3H10.522C10.3944 3 9.75539 3.3159 9 3.743V13.5247C9 13.5247 9.58927 13.2077 9.83495 13.099C10.0806 12.9904 10.2722 12.9361 10.5075 12.9361L14.0032 12.9361V3ZM6.50692 3H3V12.9214L6.59965 12.9228C6.88639 12.933 7.08274 12.9992 7.51904 13.2277L8 13.4869V3.723C7.3351 3.28247 6.74283 3 6.50692 3Z" fill="black"/>
</svg>
