<svg width="16" height="16" viewBox="0 0 16 16" fill="none" xmlns="http://www.w3.org/2000/svg">
<g id="3.&#231;&#138;&#182;&#230;&#128;&#129;&#229;&#155;&#190;&#230;&#160;&#135;/16x16/error-s">
<path id="Exclude" fill-rule="evenodd" clip-rule="evenodd" d="M8 1C11.866 1 15 4.13401 15 8C15 11.866 11.866 15 8 15C4.13401 15 1 11.866 1 8C1 4.13401 4.13401 1 8 1ZM8.00071 7.29219L5.87868 5.17157C5.68342 4.97631 5.36684 4.97631 5.17157 5.17157C4.99801 5.34514 4.97872 5.61456 5.11372 5.80943L5.17157 5.87868L7.29289 8L5.17157 10.1213C4.97631 10.3166 4.97631 10.6332 5.17157 10.8284C5.34514 11.002 5.61456 11.0213 5.80943 10.8863L5.87868 10.8284L8 8.70711L10.1213 10.8284C10.3166 11.0237 10.6332 11.0237 10.8284 10.8284C11.002 10.6549 11.0213 10.3854 10.8863 10.1906L10.8284 10.1213L8.70711 8L10.8284 5.87868C11.0237 5.68342 11.0237 5.36684 10.8284 5.17157C10.6549 4.99801 10.3854 4.97872 10.1906 5.11372L10.1213 5.17157L8.00071 7.29219L5.87868 5.17157L8.00071 7.29219Z" fill="black"/>
</g>
</svg>
