<svg xmlns="http://www.w3.org/2000/svg" width="16" height="16" viewBox="0 0 16 16">
<path d="M1.3125 1.31201H4.8125C5.05412 1.31201 5.25 1.50789 5.25 1.74951C5.25 1.99114 5.05412 2.18701 4.8125 2.18701H1.75V11.812H11.375V8.74951C11.375 8.50789 11.5709 8.31201 11.8125 8.31201C12.0541 8.31201 12.25 8.50789 12.25 8.74951V12.2495C12.25 12.4911 12.0541 12.687 11.8125 12.687H1.3125C1.07088 12.687 0.875 12.4911 0.875 12.2495V1.74951C0.875 1.50789 1.07088 1.31201 1.3125 1.31201Z" />
<path d="M7.875 1.31201H11.8124C12.054 1.31201 12.2499 1.50789 12.2499 1.74951V5.68701C12.2499 5.92864 12.054 6.12451 11.8124 6.12451C11.5707 6.12451 11.3749 5.92864 11.3749 5.68701V2.80587L4.24686 9.93387C4.076 10.1047 3.799 10.1047 3.62814 9.93387C3.45729 9.76302 3.45729 9.48601 3.62814 9.31515L10.7563 2.18701H7.875C7.63338 2.18701 7.4375 1.99114 7.4375 1.74951C7.4375 1.50789 7.63338 1.31201 7.875 1.31201Z" />
</svg>