<svg width="16" height="16" viewBox="0 0 16 16" fill="none" xmlns="http://www.w3.org/2000/svg">
<g id="5.&#231;&#164;&#190;&#228;&#186;&#164;&#229;&#155;&#190;&#230;&#160;&#135;/16x16/facebook">
<path id="Exclude" fill-rule="evenodd" clip-rule="evenodd" d="M8 1C11.866 1 15 4.13401 15 8C15 11.866 11.866 15 8 15C4.13401 15 1 11.866 1 8C1 4.13401 4.13401 1 8 1ZM8 1.875C4.61726 1.875 1.875 4.61726 1.875 8C1.875 11.3827 4.61726 14.125 8 14.125C11.3827 14.125 14.125 11.3827 14.125 8C14.125 4.61726 11.3827 1.875 8 1.875ZM9.30427 4.50198L9.47656 4.5C10.1328 4.5 10.4609 4.5525 10.625 4.57875V5.8125H9.47656C8.75469 5.8125 8.65625 6.705 8.65625 7.125V7.65H10.625L10.2969 8.7H8.65625V12.375H7.34375V8.7H5.375V7.65H7.34375V6.075C7.34375 4.89489 8.06426 4.53136 9.30427 4.50198Z" fill="black"/>
</g>
</svg>
