<svg width="16" height="16" viewBox="0 0 16 16"  xmlns="http://www.w3.org/2000/svg">
<path  clip-rule="evenodd" d="M3 1C1.89543 1 1 1.89543 1 3V13.5H7C7.27614 13.5 7.5 13.2761 7.5 13C7.5 12.8133 7.39763 12.6504 7.24596 12.5646C7.17333 12.5235 7.08941 12.5 7 12.5H2V4H14V8.5C14 8.77614 14.2239 9 14.5 9C14.7761 9 15 8.77614 15 8.5V3H8C8 1.89543 7.10457 1 6 1H3ZM6 2H3C2.44772 2 2 2.44772 2 3L7 3C7 2.44772 6.55228 2 6 2Z" />
<path  clip-rule="evenodd" d="M11.324 7.57897C10.9542 7.38779 10.5233 7.55734 10.3564 7.9115L9.65849 9.39303L8.10734 9.62916C7.9466 9.65363 7.80208 9.73238 7.69449 9.84801C7.43069 10.1315 7.43557 10.577 7.70716 10.8544L8.84316 12.0144L8.57408 13.658C8.54927 13.8095 8.57251 13.9662 8.64205 14.1048C8.81814 14.4557 9.25398 14.6128 9.61814 14.4123L11 13.6512L12.3818 14.4123C12.5228 14.4899 12.6866 14.5176 12.8468 14.4889C13.2513 14.4162 13.4866 14.029 13.4259 13.658L13.1568 12.0144L14.2928 10.8544C14.4031 10.7417 14.4719 10.5975 14.493 10.4454C14.5447 10.0729 14.2998 9.69114 13.8926 9.62916L12.3415 9.39303L11.6435 7.9115C11.5774 7.77112 11.4666 7.65272 11.324 7.57897ZM11 8.89189L11.664 10.3014L13.2049 10.536L12.0882 11.6764L12.3459 13.2508L11 12.5095L9.65405 13.2508L9.91181 11.6764L8.79503 10.536L10.336 10.3014L11 8.89189Z" />
</svg>
