<svg width="16" height="16" viewBox="0 0 16 16" fill="none" xmlns="http://www.w3.org/2000/svg">
<path fill-rule="evenodd" clip-rule="evenodd" d="M12.0007 2C12.553 2 13.0007 2.44772 13.0007 3L13 7.2L13.4312 6.90227C13.8855 6.58815 14.5084 6.70175 14.8225 7.156C14.9381 7.32315 15 7.52155 15 7.72477V14C15 14.5523 14.5523 15 14 15H2C1.44772 15 1 14.5523 1 14V7.72387C1 7.17159 1.44772 6.72387 2 6.72387C2.20309 6.72387 2.40136 6.78571 2.56845 6.90115L3 7.2L3.0007 3C3.0007 2.44772 3.44841 2 4.0007 2H12.0007ZM2 7.72387V14H14V7.72477L8.57167 11.4785C8.22954 11.7151 7.77668 11.7152 7.43446 11.4787L2 7.72387ZM12.0007 3H4.0007L4 7.891L8.0029 10.656L12 7.891L12.0007 3ZM9.99662 7C10.2728 7 10.4966 7.22386 10.4966 7.5C10.4966 7.77614 10.2728 8 9.99662 8H5.99662C5.72048 8 5.49662 7.77614 5.49662 7.5C5.49662 7.22386 5.72048 7 5.99662 7H9.99662ZM9.99662 5C10.2728 5 10.4966 5.22386 10.4966 5.5C10.4966 5.77614 10.2728 6 9.99662 6H5.99662C5.72048 6 5.49662 5.77614 5.49662 5.5C5.49662 5.22386 5.72048 5 5.99662 5H9.99662Z" fill="black"/>
</svg>
