<svg width="16" height="16" viewBox="0 0 16 16"  xmlns="http://www.w3.org/2000/svg">
<path  clip-rule="evenodd" d="M14.3687 6.80041C14.3687 6.89231 14.3065 6.96971 14.2218 6.99296L14.1687 7.00009L2.26239 7.00009C2.17034 7.00009 2.09282 6.93801 2.06953 6.85349L2.06239 6.80041L2.06239 1.19973C2.06239 1.1703 2.0689 1.14124 2.08146 1.11462C2.1207 1.03149 2.20999 0.987929 2.29649 1.00292L2.34763 1.01909L14.2539 6.61978C14.3239 6.65273 14.3687 6.7231 14.3687 6.80041ZM14.3687 9.19968C14.3687 9.27699 14.3239 9.34736 14.2539 9.38031L2.34763 14.981C2.24771 15.028 2.12854 14.9852 2.08146 14.8855C2.0689 14.8589 2.06239 14.8298 2.06239 14.8004V9.19968C2.06239 9.0894 2.15193 9 2.26239 9L14.1687 9C14.2791 9 14.3687 9.0894 14.3687 9.19968ZM10.5938 6.0017L3.06243 2.45898L3.06243 6.0017L10.5938 6.0017Z" />
</svg>
