<svg width="16" height="16" viewBox="0 0 16 16"  xmlns="http://www.w3.org/2000/svg">
<path  clip-rule="evenodd" d="M9.19959 1.68082C9.2769 1.68082 9.34727 1.72552 9.38022 1.79557L14.9809 13.7018C15.0279 13.8018 14.9851 13.9209 14.8854 13.968C14.8588 13.9806 14.8297 13.9871 14.8003 13.9871H9.19959C9.08931 13.9871 8.99991 13.8975 8.99991 13.7871V1.88082C8.99991 1.77036 9.08931 1.68082 9.19959 1.68082ZM6.80041 1.68082C6.89231 1.68082 6.96971 1.743 6.99296 1.82765L7.00009 1.88082V13.7871C7.00009 13.8791 6.93801 13.9567 6.85349 13.9799L6.80041 13.9871H1.19973C1.1703 13.9871 1.14124 13.9806 1.11462 13.968C1.03149 13.9288 0.987929 13.8395 1.00292 13.753L1.01909 13.7018L6.61978 1.79557C6.65273 1.72552 6.7231 1.68082 6.80041 1.68082ZM6.0017 5.45576L2.45897 12.9871H6.0017V5.45576Z" />
</svg>
