<svg width="16" height="16" viewBox="0 0 16 16"  xmlns="http://www.w3.org/2000/svg">
<path  clip-rule="evenodd" d="M13.9222 13.7815L13.8928 13.8218L13.8406 13.8801L13.7841 13.9257L13.69 13.9769L13.6276 13.9979L13.5598 14.0098L13.4994 14.0145H9.49944C9.22329 14.0145 8.99944 13.7907 8.99944 13.5145C8.99944 13.2691 9.17631 13.0649 9.40956 13.0226L9.49944 13.0145H12.2924L8.86739 9.58958C8.69382 9.41601 8.67453 9.14659 8.80953 8.95172L8.86739 8.88247C9.04095 8.70891 9.31038 8.68962 9.50524 8.82462L9.57449 8.88247L12.9994 12.3075V9.51452C12.9994 9.26906 13.1763 9.06492 13.4096 9.02258L13.4994 9.01452C13.7449 9.01452 13.949 9.1914 13.9914 9.42465L13.9994 9.51452L13.9993 13.5257L13.9883 13.6198L13.9693 13.6858L13.9426 13.7463C13.9361 13.7586 13.9294 13.7702 13.9222 13.7815ZM6.50244 14.0145H2.50244L2.43844 14.0098L2.3743 13.9979L2.31185 13.9769L2.27031 13.9575L2.2003 13.9129L2.16131 13.8801L2.11143 13.8262L2.06918 13.7643L2.04023 13.7056L2.01905 13.6427L2.0079 13.5884L2.00422 13.5569L2.00244 9.51452L2.0105 9.42465C2.04754 9.22055 2.20847 9.05962 2.41257 9.02258L2.50244 9.01452L2.59232 9.02258C2.79641 9.05962 2.95734 9.22055 2.99439 9.42465L3.00244 9.51452V12.3075L6.42739 8.88247L6.49663 8.82462C6.66714 8.7065 6.89473 8.7065 7.06524 8.82462L7.13449 8.88247L7.19235 8.95172C7.31047 9.12223 7.31047 9.34982 7.19235 9.52033L7.13449 9.58958L3.70944 13.0145H6.50244L6.59232 13.0226C6.82557 13.0649 7.00244 13.2691 7.00244 13.5145C7.00244 13.76 6.82557 13.9641 6.59232 14.0065L6.50244 14.0145ZM9.49944 2.00128H13.4988L13.5528 2.0041L13.6276 2.01789L13.7108 2.04803L13.7841 2.09012L13.8468 2.14166L13.8938 2.19428L13.9222 2.23427L13.9616 2.31025L13.9828 2.37314L13.994 2.42736L13.9993 2.49006L13.9994 6.50128L13.9914 6.59116C13.9543 6.79525 13.7934 6.95618 13.5893 6.99323L13.4994 7.00128L13.4096 6.99323C13.2055 6.95618 13.0445 6.79525 13.0075 6.59116L12.9994 6.50128V3.70828L9.57449 7.13333L9.50524 7.19119C9.33473 7.30931 9.10714 7.30931 8.93663 7.19119L8.86739 7.13333L8.80953 7.06408C8.69141 6.89357 8.69141 6.66598 8.80953 6.49547L8.86739 6.42623L12.2924 3.00128H9.49944L9.40956 2.99323C9.17631 2.95089 8.99944 2.74674 8.99944 2.50128C8.99944 2.25582 9.17631 2.05167 9.40956 2.00934L9.49944 2.00128ZM6.50244 2.00128C6.77858 2.00128 7.00244 2.22514 7.00244 2.50128C7.00244 2.74674 6.82557 2.95089 6.59232 2.99323L6.50244 3.00128H3.70944L7.13449 6.42623C7.30806 6.59979 7.32734 6.86922 7.19235 7.06408L7.13449 7.13333C6.96093 7.3069 6.6915 7.32618 6.49663 7.19119L6.42739 7.13333L3.00244 3.70828V6.50128C3.00244 6.74674 2.82557 6.95089 2.59232 6.99323L2.50244 7.00128C2.25698 7.00128 2.05283 6.82441 2.0105 6.59116L2.00244 6.50128L2.00422 2.4589L2.01905 2.37314L2.04023 2.31025L2.07963 2.23427L2.10644 2.19428L2.16131 2.13572L2.21778 2.09012L2.29105 2.04803L2.3743 2.01789L2.43344 2.00628L2.50244 2.00128H6.50244Z" />
</svg>
