<svg width="16" height="16" viewBox="0 0 16 16"  xmlns="http://www.w3.org/2000/svg">
<path  clip-rule="evenodd" d="M11.5 2.45C13.433 2.45 15 4.017 15 5.95C15 7.71464 13.6941 9.17426 11.996 9.41513L11.9992 9.43693L12 10.959L13.5 10.9599C13.7761 10.9599 14 11.1838 14 11.4599C14 11.7361 13.7761 11.9599 13.5 11.9599L12 11.959V13.4599C12 13.7361 11.7761 13.9599 11.5 13.9599C11.2239 13.9599 11 13.7361 11 13.4599V11.959L9.5 11.9599C9.22386 11.9599 9 11.7361 9 11.4599C9 11.1838 9.22386 10.9599 9.5 10.9599L11 10.959V9.45992L11.004 9.41513C9.30593 9.17426 8 7.71464 8 5.95C8 4.017 9.567 2.45 11.5 2.45ZM2.14645 4.62653L4.17653 2.59644C4.3501 2.42288 4.61952 2.40359 4.81439 2.53859L4.88364 2.59644L6.91373 4.62653C7.10899 4.82179 7.10899 5.13837 6.91373 5.33364C6.74016 5.5072 6.47074 5.52649 6.27587 5.39149L6.20662 5.33364L5 4.127L5.00095 6.9955C6.69663 7.23852 8 8.69701 8 10.4599C8 12.3929 6.433 13.9599 4.5 13.9599C2.567 13.9599 1 12.3929 1 10.4599C1 8.69666 2.30388 7.23795 4.00005 6.99536L4 4.187L2.85355 5.33364C2.67999 5.5072 2.41056 5.52649 2.21569 5.39149L2.14645 5.33364C1.97288 5.16007 1.9536 4.89065 2.08859 4.69578L2.14645 4.62653L4.17653 2.59644L2.14645 4.62653ZM4.5 7.95992C3.11929 7.95992 2 9.07921 2 10.4599C2 11.8406 3.11929 12.9599 4.5 12.9599C5.88071 12.9599 7 11.8406 7 10.4599C7 9.07921 5.88071 7.95992 4.5 7.95992ZM11.5 3.45C10.1193 3.45 9 4.56929 9 5.95C9 7.33071 10.1193 8.45 11.5 8.45C12.8807 8.45 14 7.33071 14 5.95C14 4.56929 12.8807 3.45 11.5 3.45Z" />
</svg>
