<svg width="12" height="12" viewBox="0 0 12 12"  xmlns="http://www.w3.org/2000/svg">
<path  clip-rule="evenodd" d="M11.195 8.3837C10.392 10.199 9.53353 11 9.10884 11H4.33094C3.74729 11 3 10.2933 3 9.67731V4.99664C3 4.14654 3.37559 3.73171 3.58794 3.50818L6.78243 0.143914C6.86281 0.05517 6.97557 0.00326136 7.09473 0.000148464C7.21389 -0.00296444 7.32917 0.0429869 7.414 0.127414L7.60998 0.319905C7.85349 0.559144 7.94427 0.939411 7.84102 1.28393L7.09334 3.98194H10.8382C11.423 3.98194 12 4.45021 12 5.06421V5.96813C12 5.96813 11.7713 7.08104 11.195 8.3837ZM0.923077 4C0.413276 4 0 4.41328 0 4.92308V10.0769C0 10.5867 0.413276 11 0.923077 11H2V4H0.923077Z" />
<rect opacity="0.01" width="12" height="12" fill="#D8D8D8"/>
</svg>
