<svg width="16" height="16" viewBox="0 0 16 16" fill="none" xmlns="http://www.w3.org/2000/svg">
<path fill-rule="evenodd" clip-rule="evenodd" d="M14 9C14.5523 9 15 9.44772 15 10V14C15 14.5523 14.5523 15 14 15H10C9.44772 15 9 14.5523 9 14V10C9 9.44772 9.44772 9 10 9H14ZM14 10H10V14H14V10ZM7 9C7.55228 9 8 9.44772 8 10V14C8 14.5523 7.55228 15 7 15H3C2.44772 15 2 14.5523 2 14V10C2 9.44772 2.44772 9 3 9H7ZM7 10H3V14H7V10ZM14 2C14.5523 2 15 2.44772 15 3V7C15 7.55228 14.5523 8 14 8H10C9.44772 8 9 7.55228 9 7V3C9 2.44772 9.44772 2 10 2H14ZM14 3H10V7H14V3ZM7 2C7.55228 2 8 2.44772 8 3V7C8 7.55228 7.55228 8 7 8H3C2.44772 8 2 7.55228 2 7V3C2 2.44772 2.44772 2 3 2H7ZM7 3H3V7H7V3Z" fill="black"/>
</svg>
