<svg width="16" height="16" viewBox="0 0 16 16" fill="none" xmlns="http://www.w3.org/2000/svg">
<g id="3.&#231;&#138;&#182;&#230;&#128;&#129;&#229;&#155;&#190;&#230;&#160;&#135;/16x16/growth">
<path id="Vector" fill-rule="evenodd" clip-rule="evenodd" d="M7.79849 3.14624L7.86778 3.08842C8.03836 2.9704 8.26595 2.97054 8.43639 3.08876L8.5056 3.14666L13.1288 7.77534C13.222 7.86866 13.2745 7.99503 13.275 8.12692C13.2759 8.37238 13.0997 8.57715 12.8666 8.62031L12.7768 8.62868L9.635 8.64L9.63539 12.75C9.63539 13.0261 9.41153 13.25 9.13539 13.25H7.13539C6.85925 13.25 6.63539 13.0261 6.63539 12.75L6.635 8.65L3.50176 8.66134C3.39533 8.66171 3.29229 8.62814 3.20711 8.56658L3.14681 8.51526C2.97306 8.34187 2.9535 8.07246 3.0883 7.87746L3.14609 7.80815L7.79849 3.14624L7.86778 3.08842L7.79849 3.14624Z" fill="black"/>
</g>
</svg>
