<svg width="16" height="16" viewBox="0 0 16 16" fill="none" xmlns="http://www.w3.org/2000/svg">
<path fill-rule="evenodd" clip-rule="evenodd" d="M14.5 6.6543C14.5 8.73562 13.5218 10.5885 12 11.7781V14.9516C12 15.2982 11.8205 15.6201 11.5257 15.8023C11.2309 15.9845 10.8628 16.001 10.5528 15.8461L8 14.5697L5.44721 15.8461C5.13723 16.001 4.76909 15.9845 4.47427 15.8023C4.17945 15.6201 4 15.2982 4 14.9516V11.7781C2.47823 10.5885 1.5 8.73562 1.5 6.6543C1.5 3.06445 4.41015 0.154297 8 0.154297C11.5899 0.154297 14.5 3.06445 14.5 6.6543ZM12 10.4292V10.4292C12.9299 9.44422 13.5 8.11583 13.5 6.6543C13.5 3.61673 11.0376 1.1543 8 1.1543C4.96243 1.1543 2.5 3.61673 2.5 6.6543C2.5 8.11583 3.07008 9.44422 4 10.4292V10.4292C4.29856 10.7454 4.63421 11.0263 5 11.2648V11.2648C5.86278 11.8274 6.89321 12.1543 8 12.1543C9.10679 12.1543 10.1372 11.8274 11 11.2648V11.2648C11.3658 11.0263 11.7014 10.7454 12 10.4292ZM8 13.1543C6.91787 13.1543 5.89751 12.8899 5 12.4221V14.9516L8 13.4516L11 14.9516V12.4221C10.1025 12.8899 9.08213 13.1543 8 13.1543ZM8 10.1543C9.933 10.1543 11.5 8.58729 11.5 6.6543C11.5 4.7213 9.933 3.1543 8 3.1543C6.067 3.1543 4.5 4.7213 4.5 6.6543C4.5 8.58729 6.067 10.1543 8 10.1543ZM10.5 6.6543C10.5 8.03501 9.38071 9.1543 8 9.1543C6.61929 9.1543 5.5 8.03501 5.5 6.6543C5.5 5.27358 6.61929 4.1543 8 4.1543C9.38071 4.1543 10.5 5.27358 10.5 6.6543Z" fill="#333333"/>
</svg>
