<svg width="16" height="16" viewBox="0 0 16 16"  xmlns="http://www.w3.org/2000/svg">
<g id="3.&#231;&#138;&#182;&#230;&#128;&#129;&#229;&#155;&#190;&#230;&#160;&#135;/16x16/horn-notice-s">
<path id="Exclude"  clip-rule="evenodd" d="M12.2769 3.78172C12.5593 3.9175 12.8276 4.08053 13.0781 4.26821C14.2789 5.16808 15 6.57548 15 8.10142C15 9.63318 14.2734 11.0453 13.0648 11.9445C12.8127 12.1321 12.5427 12.2948 12.2585 12.4299C12.0404 12.5336 11.7793 12.4416 11.6752 12.2244C11.5711 12.0072 11.6635 11.747 11.8815 11.6433C12.1139 11.5328 12.3348 11.3997 12.5412 11.2462C13.5309 10.5098 14.125 9.35525 14.125 8.10142C14.125 6.85235 13.5354 5.70168 12.552 4.96476C12.347 4.81114 12.1275 4.67775 11.8966 4.56671C11.6789 4.46209 11.5877 4.20155 11.6927 3.98478C11.7977 3.76801 12.0593 3.6771 12.2769 3.78172ZM12.2722 5.8666C12.8913 6.43988 13.25 7.24254 13.25 8.10142C13.25 8.95939 12.892 9.76127 12.2741 10.3345C12.0973 10.4985 11.8204 10.4887 11.6558 10.3125C11.4911 10.1364 11.501 9.86059 11.6778 9.69656C12.1198 9.28658 12.375 8.71489 12.375 8.10142C12.375 7.4873 12.1192 6.91505 11.6764 6.505C11.4995 6.34113 11.4894 6.06537 11.6539 5.88908C11.8184 5.71279 12.0952 5.70272 12.2722 5.8666ZM10.5123 2.44393C10.5862 2.57453 10.625 2.72189 10.625 2.87179V13.3784C10.625 13.8598 10.2332 14.25 9.75 14.25C9.59659 14.25 9.44587 14.2098 9.31297 14.1335L4.93629 11.588L1.875 11.6199C1.39175 11.6199 1 11.2297 1 10.7483V5.51696C1 5.03558 1.39175 4.64533 1.875 4.64533L4.9375 4.6149L9.32049 2.11239C9.74151 1.87609 10.2751 2.02453 10.5123 2.44393Z" />
</g>
</svg>
