<svg width="16" height="16" viewBox="0 0 16 16"  xmlns="http://www.w3.org/2000/svg">
<g id="3.&#231;&#138;&#182;&#230;&#128;&#129;&#229;&#155;&#190;&#230;&#160;&#135;/16x16/hot-s">
<path id="Vector"  clip-rule="evenodd" d="M9.82011 1.27741C9.97887 2.60225 10.5851 3.78501 11.479 4.66163C12.9958 5.67021 14 7.41984 14 9.4101C14 11.5744 12.4143 13.7854 10.8563 14.2888L10.6394 14.359C10.7244 14.2957 10.7979 14.2248 10.8563 14.1456C11.1757 13.7118 11.3796 13.0972 11.4679 12.3017C11.6395 10.7557 11.1225 9.27913 9.91663 7.8721C9.85963 7.80558 9.75491 7.83887 9.76125 7.91914L9.79745 8.42686C9.8629 9.47037 9.84409 10.1462 9.74101 10.4545C9.4945 11.1917 9.06397 11.7333 8.58974 11.7631C7.84345 11.81 7.29774 11.4939 6.95263 10.815C6.92101 10.7528 6.79574 10.7572 6.76595 10.8265C6.4465 11.5699 6.41483 12.3424 6.67095 13.1441C6.80236 13.5555 7.02973 13.9259 7.35303 14.2554C7.58601 14.4928 7.99041 14.7236 8.49688 14.8054C7.86465 14.8276 7.20102 14.7262 6.41157 14.4351C4.65779 13.7885 3 11.6983 3 9.4101C3 7.87193 3.59978 6.47749 4.57248 5.45956C4.60936 5.42096 4.66706 5.38489 4.71889 5.39082C4.78249 5.39811 4.83779 5.45717 4.84148 5.51169C4.93026 6.82228 5.33854 7.84131 6.19232 8.68147C6.28909 8.77671 6.35859 8.71334 6.30137 8.59133C5.96091 7.86545 5.92365 7.16176 5.92365 6.22486C5.92365 4.06882 7.10206 2.19518 8.83408 1.24501L9.03635 1.13951C9.5 0.871006 9.788 1.03053 9.82011 1.27741Z" />
</g>
</svg>
