<svg width="16" height="16" viewBox="0 0 16 16" fill="none" xmlns="http://www.w3.org/2000/svg">
<path fill-rule="evenodd" clip-rule="evenodd" d="M14 2C14.5523 2 15 2.44772 15 3V13C15 13.5523 14.5523 14 14 14H2C1.44772 14 1 13.5523 1 13V3C1 2.44772 1.44772 2 2 2H14ZM9.73841 7.70861L6.28026 11.1814C6.10655 11.3559 5.83619 11.3753 5.641 11.2396L5.57166 11.1814L4.61731 10.223L2 12.848V13H14V11.984L9.73841 7.70861ZM14 3H2V11.433L4.26301 9.16163C4.43672 8.98717 4.70708 8.96779 4.90227 9.10348L4.97161 9.16163L5.92596 10.12L9.38411 6.6472C9.55783 6.47274 9.82819 6.45336 10.0234 6.58904L10.0927 6.6472L14 10.571V3ZM5 5C5.55228 5 6 5.44772 6 6C6 6.55228 5.55228 7 5 7C4.44772 7 4 6.55228 4 6C4 5.44772 4.44772 5 5 5Z" fill="black"/>
</svg>
