<svg width="16" height="16" viewBox="0 0 16 16"  xmlns="http://www.w3.org/2000/svg">
<path  clip-rule="evenodd" d="M13.9466 2C14.4981 2 14.9466 2.44844 14.9466 3V13.9823C14.9466 14.5339 14.4981 14.9823 13.9466 14.9823H2.94873C2.39717 14.9823 1.94873 14.5339 1.94873 13.9823V3C1.94873 2.44844 2.39717 2 2.94873 2H13.9466ZM13.9466 3H2.94873V13.9823H13.9466V3ZM11.785 11.0159C12.0615 11.0159 12.285 11.2394 12.285 11.5159C12.285 11.7925 12.0615 12.0159 11.785 12.0159H7.8429C7.56633 12.0159 7.3429 11.7925 7.3429 11.5159C7.3429 11.2394 7.56633 11.0159 7.8429 11.0159H11.785ZM5.5929 10.7659C6.00711 10.7659 6.3429 11.1017 6.3429 11.5159C6.3429 11.9302 6.00711 12.2659 5.5929 12.2659C5.17868 12.2659 4.8429 11.9302 4.8429 11.5159C4.8429 11.1017 5.17868 10.7659 5.5929 10.7659ZM11.785 8C12.0615 8 12.285 8.22344 12.285 8.5C12.285 8.77656 12.0615 9 11.785 9H7.8429C7.56633 9 7.3429 8.77656 7.3429 8.5C7.3429 8.22344 7.56633 8 7.8429 8H11.785ZM5.5929 7.73438C6.00711 7.73438 6.3429 8.07016 6.3429 8.48438C6.3429 8.89859 6.00711 9.23438 5.5929 9.23438C5.17868 9.23438 4.8429 8.89859 4.8429 8.48438C4.8429 8.07016 5.17868 7.73438 5.5929 7.73438ZM11.785 5.02215C12.0615 5.02215 12.285 5.24559 12.285 5.52215C12.285 5.79871 12.0615 6.02215 11.785 6.02215H7.8429C7.56633 6.02215 7.3429 5.79871 7.3429 5.52215C7.3429 5.24559 7.56633 5.02215 7.8429 5.02215H11.785ZM5.5929 4.77215C6.00711 4.77215 6.3429 5.10794 6.3429 5.52215C6.3429 5.93637 6.00711 6.27215 5.5929 6.27215C5.17868 6.27215 4.8429 5.93637 4.8429 5.52215C4.8429 5.10794 5.17868 4.77215 5.5929 4.77215Z" />
</svg>
