<svg width="16" height="16" viewBox="0 0 16 16" fill="none" xmlns="http://www.w3.org/2000/svg">
<path fill-rule="evenodd" clip-rule="evenodd" d="M15.2601 5.57259C15.4962 5.71589 15.5714 6.02342 15.4281 6.25947C14.6701 7.50809 13.6397 8.53087 12.4373 9.25892L13.4473 11.2764C13.5708 11.5234 13.4707 11.8237 13.2237 11.9472C12.9767 12.0707 12.6764 11.9706 12.5529 11.7236L11.5536 9.72648C10.604 10.1605 9.57274 10.4228 8.5008 10.4854L8.50038 12C8.50038 12.2761 8.27652 12.5 8.00038 12.5C7.75492 12.5 7.55077 12.3231 7.50843 12.0899L7.50038 12L7.50037 10.4855C6.42795 10.423 5.39617 10.1605 4.44626 9.72638L3.44729 11.7236C3.32379 11.9706 3.02346 12.0707 2.77647 11.9472C2.55692 11.8374 2.45343 11.5879 2.51987 11.3604L2.55286 11.2764L3.56284 9.25745C2.36074 8.53123 1.33043 7.50868 0.572664 6.26043C0.429366 6.02438 0.504558 5.71686 0.74061 5.57356C0.976661 5.43026 1.28418 5.50545 1.42748 5.74151C2.83665 8.0628 5.29939 9.49998 8.00007 9.49998C10.7009 9.49998 13.1636 8.06269 14.5733 5.74053C14.7166 5.50448 15.0241 5.42929 15.2601 5.57259Z" fill="black"/>
</svg>
