<svg width="16" height="16" viewBox="0 0 16 16" fill="none" xmlns="http://www.w3.org/2000/svg">
<path fill-rule="evenodd" clip-rule="evenodd" d="M4 2.59637C4 1.71271 4.71634 0.996368 5.6 0.996368H10.4C11.2837 0.996368 12 1.71271 12 2.59637V2.99637H14C14.5523 2.99637 15 3.44408 15 3.99637V13.9964C15 14.5487 14.5523 14.9964 14 14.9964H2C1.44772 14.9964 1 14.5487 1 13.9964V3.99637C1 3.44408 1.44772 2.99637 2 2.99637H4V2.59637ZM2.5 3.99637C2.22386 3.99637 2 4.22023 2 4.49637V6.99637H5V6.49637C5 6.22023 5.22386 5.99637 5.5 5.99637C5.77614 5.99637 6 6.22023 6 6.49637V6.99637H10V6.49637C10 6.22023 10.2239 5.99637 10.5 5.99637C10.7761 5.99637 11 6.22023 11 6.49637V6.99637H14V4.49637C14 4.22023 13.7761 3.99637 13.5 3.99637H2.5ZM11 2.99637H5V2.79637C5 2.35454 5.35817 1.99637 5.8 1.99637H10.2C10.6418 1.99637 11 2.35454 11 2.79637V2.99637ZM2 13.4964V7.99637H5V8.49637C5 8.77251 5.22386 8.99637 5.5 8.99637C5.77614 8.99637 6 8.77251 6 8.49637V7.99637H10V8.49637C10 8.77251 10.2239 8.99637 10.5 8.99637C10.7761 8.99637 11 8.77251 11 8.49637V7.99637H14V13.4964C14 13.7725 13.7761 13.9964 13.5 13.9964H2.5C2.22386 13.9964 2 13.7725 2 13.4964Z" fill="black"/>
</svg>
