<svg width="16" height="16" viewBox="0 0 16 16"  xmlns="http://www.w3.org/2000/svg">
<path  clip-rule="evenodd" d="M7.71856 13.8817L2.23849 8.40165C0.77402 6.93718 0.77402 4.56282 2.23849 3.09835C3.65245 1.68438 5.91465 1.63562 7.38712 2.95208L8.07214 3.628L8.60258 3.09835C10.067 1.63388 12.4414 1.63388 13.9059 3.09835C15.3703 4.56282 15.3703 6.93718 13.9059 8.40165L8.42567 13.8817C8.23041 14.077 7.91383 14.077 7.71856 13.8817ZM13.1988 7.69454C14.2727 6.6206 14.2727 4.8794 13.1988 3.80546C12.1248 2.73151 10.3836 2.73151 9.30916 3.80598L8.42774 4.68609C8.23327 4.88027 7.91854 4.8811 7.72304 4.68795L6.72061 3.69757C5.63731 2.72905 3.97834 2.77271 2.94559 3.80546C1.87165 4.8794 1.87165 6.6206 2.94559 7.69454L8.07213 12.8211L13.1988 7.69454Z" />
</svg>
