<svg width="16" height="16" viewBox="0 0 16 16"  xmlns="http://www.w3.org/2000/svg">
<path  clip-rule="evenodd" d="M4.83409 6.9447C5.02837 7.13897 5.02837 7.45396 4.83409 7.64823L2.72348 9.75884C1.7521 10.7302 1.7521 12.3051 2.72348 13.2765C3.69486 14.2479 5.26978 14.2479 6.24116 13.2765L8.35177 11.1659C8.54604 10.9716 8.86103 10.9716 9.0553 11.1659C9.24958 11.3602 9.24958 11.6752 9.0553 11.8694L6.9447 13.9801C5.58477 15.34 3.37988 15.34 2.01995 13.9801C0.660017 12.6201 0.660017 10.4152 2.01995 9.0553L4.13056 6.9447C4.32483 6.75042 4.63981 6.75042 4.83409 6.9447ZM10.4624 5.53763C10.6567 5.7319 10.6567 6.04689 10.4624 6.24116L6.24116 10.4624C6.04689 10.6567 5.7319 10.6567 5.53763 10.4624C5.34335 10.2681 5.34335 9.95311 5.53763 9.75884L9.75884 5.53763C9.95311 5.34335 10.2681 5.34335 10.4624 5.53763ZM13.9801 2.01995C15.34 3.37988 15.34 5.58477 13.9801 6.9447L11.8694 9.0553C11.6752 9.24958 11.3602 9.24958 11.1659 9.0553C10.9716 8.86103 10.9716 8.54604 11.1659 8.35177L13.2765 6.24116C14.2479 5.26978 14.2479 3.69486 13.2765 2.72348C12.3051 1.7521 10.7302 1.7521 9.75884 2.72348L7.64823 4.83409C7.45396 5.02837 7.13897 5.02837 6.9447 4.83409C6.75042 4.63981 6.75042 4.32483 6.9447 4.13056L9.0553 2.01995C10.4152 0.660017 12.6201 0.660017 13.9801 2.01995Z" />
</svg>
