<svg width="16" height="16" viewBox="0 0 16 16"  xmlns="http://www.w3.org/2000/svg">
<path  d="M13.2453 11.9992C13.5083 11.9992 13.7215 12.2185 13.7215 12.489C13.7215 12.7595 13.5083 12.9788 13.2453 12.9788H5.6263C5.36331 12.9788 5.15011 12.7595 5.15011 12.489C5.15011 12.2185 5.36331 11.9992 5.6263 11.9992H13.2453ZM3.04297 11.754C3.45718 11.754 3.79297 12.0898 3.79297 12.504C3.79297 12.9182 3.45718 13.254 3.04297 13.254C2.62876 13.254 2.29297 12.9182 2.29297 12.504C2.29297 12.0898 2.62876 11.754 3.04297 11.754ZM13.2453 7.49959C13.5083 7.49959 13.7215 7.71888 13.7215 7.98938C13.7215 8.25989 13.5083 8.47918 13.2453 8.47918H5.6263C5.36331 8.47918 5.15011 8.25989 5.15011 7.98938C5.15011 7.71888 5.36331 7.49959 5.6263 7.49959H13.2453ZM3.04297 7.28129C3.45718 7.28129 3.79297 7.61707 3.79297 8.03129C3.79297 8.4455 3.45718 8.78129 3.04297 8.78129C2.62876 8.78129 2.29297 8.4455 2.29297 8.03129C2.29297 7.61707 2.62876 7.28129 3.04297 7.28129ZM13.2453 3C13.5083 3 13.7215 3.21929 13.7215 3.48979C13.7215 3.7603 13.5083 3.97959 13.2453 3.97959H5.6263C5.36331 3.97959 5.15011 3.7603 5.15011 3.48979C5.15011 3.21929 5.36331 3 5.6263 3H13.2453ZM3.04297 2.72479C3.45718 2.72479 3.79297 3.06058 3.79297 3.47479C3.79297 3.88901 3.45718 4.22479 3.04297 4.22479C2.62876 4.22479 2.29297 3.88901 2.29297 3.47479C2.29297 3.06058 2.62876 2.72479 3.04297 2.72479Z" />
</svg>
