<svg width="16" height="16" viewBox="0 0 16 16"  xmlns="http://www.w3.org/2000/svg">
<rect opacity="0.01" width="16" height="16" fill="white"/>
<path  clip-rule="evenodd" d="M8.5 3C8.22386 3 8 3.22386 8 3.5V5.5C8 5.77614 8.22386 6 8.5 6C8.77614 6 9 5.77614 9 5.5V3.5C9 3.22386 8.77614 3 8.5 3ZM12.3536 4.35355C12.1583 4.15829 11.8417 4.15829 11.6464 4.35355L10.2322 5.76777C10.037 5.96303 10.037 6.27961 10.2322 6.47487C10.4275 6.67014 10.7441 6.67014 10.9393 6.47487L12.3536 5.06066C12.5488 4.8654 12.5488 4.54882 12.3536 4.35355ZM13.5 8C13.7761 8 14 8.22386 14 8.5C14 8.77614 13.7761 9 13.5 9H11.5C11.2239 9 11 8.77614 11 8.5C11 8.22386 11.2239 8 11.5 8H13.5ZM11.6464 12.3536C11.8417 12.1583 11.8417 11.8417 11.6464 11.6464L10.2322 10.2322C10.037 10.037 9.72039 10.037 9.52513 10.2322C9.32986 10.4275 9.32986 10.7441 9.52513 10.9393L10.9393 12.3536C11.1346 12.5488 11.4512 12.5488 11.6464 12.3536ZM9 13.5C9 13.7761 8.77614 14 8.5 14C8.22386 14 8 13.7761 8 13.5V11.5C8 11.2239 8.22386 11 8.5 11C8.77614 11 9 11.2239 9 11.5V13.5ZM3.64645 11.6464C3.84171 11.8417 4.15829 11.8417 4.35355 11.6464L5.76777 10.2322C5.96303 10.037 5.96303 9.72039 5.76777 9.52513C5.5725 9.32986 5.25592 9.32986 5.06066 9.52513L3.64645 10.9393C3.45118 11.1346 3.45118 11.4512 3.64645 11.6464ZM3.5 9C3.22386 9 3 8.77614 3 8.5C3 8.22386 3.22386 8 3.5 8H5.5C5.77614 8 6 8.22386 6 8.5C6 8.77614 5.77614 9 5.5 9H3.5ZM4.35355 3.64645C4.15829 3.84171 4.15829 4.15829 4.35355 4.35355L5.76777 5.76777C5.96303 5.96303 6.27961 5.96303 6.47487 5.76777C6.67014 5.5725 6.67014 5.25592 6.47487 5.06066L5.06066 3.64645C4.8654 3.45118 4.54882 3.45118 4.35355 3.64645Z"/>
</svg>
