<svg xmlns="http://www.w3.org/2000/svg" width="32" height="32" viewBox="0 0 32 32" fill="none" style="&#10;">
<path d="M19.0231 0.794427C20.0232 0.992267 20.9971 1.28793 21.9332 1.67608C23.8141 2.45602 25.5219 3.60121 26.96 5.0393C29.847 7.92638 31.4998 11.834 31.4998 15.9995C31.4998 20.165 29.847 24.0725 26.96 26.9596C25.5219 28.3977 23.8141 29.5429 21.9332 30.3228C20.9971 30.711 20.0232 31.0066 19.0231 31.2045C18.2104 31.3652 17.4213 30.8368 17.2605 30.0241C17.0997 29.2114 17.6282 28.4223 18.4409 28.2615C19.2462 28.1022 20.0303 27.8642 20.784 27.5516C22.3 26.923 23.6778 25.9991 24.8386 24.8383C27.1687 22.5082 28.4998 19.3611 28.4998 15.9995C28.4998 12.6378 27.1687 9.49067 24.8386 7.16062C23.6778 5.99979 22.3 5.0759 20.784 4.44728C20.0303 4.13474 19.2462 3.89671 18.4409 3.73739C17.6282 3.57663 17.0997 2.7875 17.2605 1.97482C17.4079 1.22986 18.0832 0.723714 18.8207 0.76836L19.0231 0.794427Z"/>
</svg>