<svg width="16" height="16" viewBox="0 0 16 16"  xmlns="http://www.w3.org/2000/svg">
<path  d="M8.5 1C11.4635 1 14 3.40079 14 6.54518C14 9.11894 12.3841 11.7591 9.15224 14.5965L8.82371 14.8808C8.63697 15.04 8.36341 15.0397 8.17703 14.8801C4.72568 11.9238 3 9.14558 3 6.54527C3.00162 3.48107 5.46343 1 8.5 1ZM8.5 2.00823C6.01526 2.00823 4.00133 4.03848 4 6.54527C4 8.71706 5.47038 11.1575 8.50145 13.8309C11.5323 11.1685 13 8.72958 13 6.54518C13 4.03948 10.9852 2.00823 8.5 2.00823ZM8.5 4.02469C9.88071 4.02469 11 5.15319 11 6.54527C11 7.93735 9.88071 9.06585 8.5 9.06585C7.11929 9.06585 6 7.93735 6 6.54527C6 5.15319 7.11929 4.02469 8.5 4.02469ZM8.5 5.03292C7.67157 5.03292 7 5.71003 7 6.54527C7 7.38052 7.67157 8.05762 8.5 8.05762C9.32843 8.05762 10 7.38052 10 6.54527C10 5.71003 9.32843 5.03292 8.5 5.03292Z" />
</svg>
