<svg width="16" height="16" viewBox="0 0 16 16"  xmlns="http://www.w3.org/2000/svg">
<g id="3.&#231;&#138;&#182;&#230;&#128;&#129;&#229;&#155;&#190;&#230;&#160;&#135;/16x16/lock-s">
<path id="Exclude"  d="M8.5 1C10.433 1 12 2.567 12 4.5V6H13C13.5523 6 14 6.44772 14 7V14C14 14.5523 13.5523 15 13 15H4C3.44772 15 3 14.5523 3 14V7C3 6.44772 3.44772 6 4 6H5V4.5C5 2.567 6.567 1 8.5 1ZM8.5 8C7.67157 8 7 8.67157 7 9.5C7 10.0435 7.28903 10.5194 7.72176 10.7826L7.93798 12.5039C7.97341 12.7873 8.21436 13 8.5 13C8.75391 13 8.97249 12.8319 9.04282 12.5955L9.06202 12.5039L9.27824 10.7826C9.71097 10.5194 10 10.0435 10 9.5C10 8.67157 9.32843 8 8.5 8ZM8.5 2.5C7.39543 2.5 6.5 3.39543 6.5 4.5V6H10.5V4.5C10.5 3.39543 9.60457 2.5 8.5 2.5Z" />
</g>
</svg>
