<svg width="16" height="16" viewBox="0 0 16 16" fill="none" xmlns="http://www.w3.org/2000/svg">
<path fill-rule="evenodd" clip-rule="evenodd" d="M8 2C8.55228 2 9 2.44772 9 3V4.5C9 4.77614 8.77614 5 8.5 5C8.22386 5 8 4.77614 8 4.5V3H2V14H8V12.5C8 12.2239 8.22386 12 8.5 12C8.77614 12 9 12.2239 9 12.5V14C9 14.5523 8.55228 15 8 15H2C1.44772 15 1 14.5523 1 14V3C1 2.44772 1.44772 2 2 2H8ZM10.949 5.03975L11.0069 4.9705C11.1804 4.79693 11.4499 4.77765 11.6447 4.91264L11.714 4.9705L14.8899 8.14645C15.0635 8.32001 15.0828 8.58944 14.9478 8.78431L14.8899 8.85355L11.714 12.0295C11.5187 12.2248 11.2021 12.2248 11.0069 12.0295C10.8333 11.8559 10.814 11.5865 10.949 11.3916L11.0069 11.3224L13.328 9H4.5C4.22386 9 4 8.77614 4 8.5C4 8.22386 4.22386 8 4.5 8H13.33L11.0069 5.67761C10.8333 5.50404 10.814 5.23461 10.949 5.03975L11.0069 4.9705L10.949 5.03975Z" fill="black"/>
</svg>
