<svg width="16" height="16" viewBox="0 0 16 16"  xmlns="http://www.w3.org/2000/svg">
<path  d="M6 1.5C6 1.22344 6.22344 1 6.5 1C6.77656 1 7 1.22344 7 1.5V3.5C7 3.77656 6.77656 4 6.5 4C6.22344 4 6 3.77656 6 3.5V1.5ZM9.35312 4.35313L10.8531 2.85312C11.0484 2.65781 11.0484 2.34063 10.8531 2.14531C10.6578 1.95 10.3406 1.95 10.1453 2.14531L8.64531 3.64531C8.45 3.84063 8.45 4.15781 8.64531 4.35313C8.84219 4.54844 9.15781 4.54844 9.35312 4.35313ZM2.14531 2.14688C2.34063 1.95156 2.65781 1.95156 2.85312 2.14688L4.35313 3.64687C4.54844 3.84219 4.54844 4.15938 4.35313 4.35469C4.15781 4.55 3.84063 4.55 3.64531 4.35469L2.14531 2.85469C1.95 2.65937 1.95 2.34219 2.14531 2.14688ZM4 6.5C4 6.22344 3.77656 6 3.5 6H1.5C1.22344 6 1 6.22344 1 6.5C1 6.77656 1.22344 7 1.5 7H3.5C3.77656 7 4 6.77656 4 6.5ZM9.5 7C9.22344 7 9 6.77656 9 6.5C9 6.22344 9.22344 6 9.5 6H11.5C11.7766 6 12 6.22344 12 6.5C12 6.77656 11.7766 7 11.5 7H9.5ZM3.64687 8.64687L2.14688 10.1469C1.95156 10.3422 1.95156 10.6594 2.14688 10.8547C2.34219 11.05 2.65937 11.05 2.85469 10.8547L4.35469 9.35469C4.55 9.15938 4.55 8.84219 4.35469 8.64687C4.15781 8.45156 3.84219 8.45156 3.64687 8.64687ZM9.35312 8.64687L14.8531 14.1469C15.0484 14.3422 15.0484 14.6578 14.8531 14.8547C14.6578 15.05 14.3406 15.05 14.1453 14.8547L8.64531 9.35469C8.45 9.15938 8.45 8.84219 8.64531 8.64687C8.84062 8.45156 9.15781 8.45156 9.35312 8.64687ZM6 9.5C6 9.22344 6.22344 9 6.5 9C6.77656 9 7 9.22344 7 9.5V11.5C7 11.7766 6.77656 12 6.5 12C6.22344 12 6 11.7766 6 11.5V9.5Z" />
</svg>
