<svg width="16" height="16" viewBox="0 0 16 16"  xmlns="http://www.w3.org/2000/svg">
<path  clip-rule="evenodd" d="M7.48857 1.10399C7.75492 1.10312 8.01062 1.20854 8.19896 1.39688L14.3951 7.593C14.7856 7.98353 14.7856 8.61669 14.3951 9.00722L8.9462 14.4561C8.55567 14.8466 7.92251 14.8466 7.53198 14.4561L1.33586 8.25998C1.14752 8.07164 1.0421 7.81594 1.04297 7.54959L1.06241 1.62179C1.06331 1.34692 1.2859 1.12433 1.56077 1.12343L7.48857 1.10399ZM7.49185 2.10399L2.06077 2.12179L2.04297 7.55287L8.23909 13.749L13.688 8.30011L7.49185 2.10399ZM4.54297 3.10399C5.3714 3.10399 6.04297 3.77556 6.04297 4.60399C6.04297 5.43242 5.3714 6.10399 4.54297 6.10399C3.71454 6.10399 3.04297 5.43242 3.04297 4.60399C3.04297 3.77556 3.71454 3.10399 4.54297 3.10399ZM4.54297 4.10399C4.26683 4.10399 4.04297 4.32785 4.04297 4.60399C4.04297 4.88013 4.26683 5.10399 4.54297 5.10399C4.81911 5.10399 5.04297 4.88013 5.04297 4.60399C5.04297 4.32785 4.81911 4.10399 4.54297 4.10399Z" />
</svg>
