<svg width="16" height="16" viewBox="0 0 16 16" fill="none" xmlns="http://www.w3.org/2000/svg">
<path fill-rule="evenodd" clip-rule="evenodd" d="M6.00433 9.99157C6.28047 9.99157 6.50433 10.2154 6.50433 10.4916C6.50433 10.7677 6.28047 10.9916 6.00433 10.9916H4.00433C3.72819 10.9916 3.50433 10.7677 3.50433 10.4916C3.50433 10.2154 3.72819 9.99157 4.00433 9.99157H6.00433ZM1.75 9.74157C2.16421 9.74157 2.5 10.0774 2.5 10.4916C2.5 10.9058 2.16421 11.2416 1.75 11.2416C1.33579 11.2416 1 10.9058 1 10.4916C1 10.0774 1.33579 9.74157 1.75 9.74157ZM13.5327 5.86234L14.947 7.27655C15.1422 7.47182 15.1422 7.7884 14.947 7.98366L9.0544 13.8762C8.97791 13.9527 8.87866 14.0023 8.77156 14.0176L7.12164 14.2533C6.84828 14.2924 6.59501 14.1024 6.55596 13.8291C6.54926 13.7822 6.54926 13.7346 6.55596 13.6877L6.79166 12.0377C6.80696 11.9306 6.85658 11.8314 6.93308 11.7549L12.8256 5.86234C13.0209 5.66708 13.3375 5.66708 13.5327 5.86234ZM13.1792 6.923L7.75804 12.3442L7.64019 13.1691L8.46515 13.0513L13.8863 7.63011L13.1792 6.923ZM9.50433 5.99157C9.78048 5.99157 10.0043 6.21543 10.0043 6.49157C10.0043 6.76771 9.78048 6.99157 9.50433 6.99157H4.00433C3.72819 6.99157 3.50433 6.76771 3.50433 6.49157C3.50433 6.21543 3.72819 5.99157 4.00433 5.99157H9.50433ZM1.75 5.74157C2.16421 5.74157 2.5 6.07736 2.5 6.49157C2.5 6.90578 2.16421 7.24157 1.75 7.24157C1.33579 7.24157 1 6.90578 1 6.49157C1 6.07736 1.33579 5.74157 1.75 5.74157ZM12.0043 1.99157C12.2805 1.99157 12.5043 2.21543 12.5043 2.49157C12.5043 2.76771 12.2805 2.99157 12.0043 2.99157H4.00433C3.72819 2.99157 3.50433 2.76771 3.50433 2.49157C3.50433 2.21543 3.72819 1.99157 4.00433 1.99157H12.0043ZM1.75 1.74157C2.16421 1.74157 2.5 2.07736 2.5 2.49157C2.5 2.90578 2.16421 3.24157 1.75 3.24157C1.33579 3.24157 1 2.90578 1 2.49157C1 2.07736 1.33579 1.74157 1.75 1.74157Z" fill="black"/>
</svg>
