<svg width="16" height="16" viewBox="0 0 16 16" fill="none" xmlns="http://www.w3.org/2000/svg">
<path fill-rule="evenodd" clip-rule="evenodd" d="M13.2819 0H14.7181C15.1638 0 15.3255 0.0464128 15.4884 0.133566C15.6514 0.22072 15.7793 0.348614 15.8664 0.511577C15.9536 0.67454 16 0.836183 16 1.28194V2.71806C16 3.16382 15.9536 3.32546 15.8664 3.48842C15.7793 3.65139 15.6514 3.77928 15.4884 3.86643C15.3255 3.95359 15.1638 4 14.7181 4H13.2819C12.8362 4 12.6745 3.95359 12.5116 3.86643C12.3486 3.77928 12.2207 3.65139 12.1336 3.48842C12.0464 3.32546 12 3.16382 12 2.71806V1.28194C12 0.836183 12.0464 0.67454 12.1336 0.511577C12.2207 0.348614 12.3486 0.22072 12.5116 0.133566C12.6745 0.0464128 12.8362 0 13.2819 0ZM13 1.28194V2.71806C13 2.89905 13.0022 2.96325 13.0074 2.9926C13.0367 2.99779 13.1009 3 13.2819 3H14.7181C14.8991 3 14.9633 2.99779 14.9926 2.9926C14.9978 2.96325 15 2.89905 15 2.71806V1.28194C15 1.10095 14.9978 1.03675 14.9926 1.0074C14.9633 1.00221 14.8991 1 14.7181 1H13.2819C13.1009 1 13.0367 1.00221 13.0074 1.0074C13.0022 1.03675 13 1.10095 13 1.28194ZM14.7181 6H13.2819C12.8362 6 12.6745 6.04641 12.5116 6.13357C12.3486 6.22072 12.2207 6.34861 12.1336 6.51158C12.0464 6.67454 12 6.83618 12 7.28194V8.71806C12 9.16382 12.0464 9.32546 12.1336 9.48842C12.2207 9.65139 12.3486 9.77928 12.5116 9.86643C12.6745 9.95359 12.8362 10 13.2819 10H14.7181C15.1638 10 15.3255 9.95359 15.4884 9.86643C15.6514 9.77928 15.7793 9.65139 15.8664 9.48842C15.9536 9.32546 16 9.16382 16 8.71806V7.28194C16 6.83618 15.9536 6.67454 15.8664 6.51158C15.7793 6.34861 15.6514 6.22072 15.4884 6.13357C15.3255 6.04641 15.1638 6 14.7181 6ZM13 8.71806V7.28194C13 7.10095 13.0022 7.03675 13.0074 7.0074C13.0367 7.00221 13.1009 7 13.2819 7H14.7181C14.8991 7 14.9633 7.00221 14.9926 7.0074C14.9978 7.03675 15 7.10095 15 7.28194V8.71806C15 8.89905 14.9978 8.96325 14.9926 8.9926C14.9633 8.99779 14.8991 9 14.7181 9H13.2819C13.1009 9 13.0367 8.99779 13.0074 8.9926C13.0022 8.96325 13 8.89905 13 8.71806ZM1.28194 12H2.71806C3.16382 12 3.32546 12.0464 3.48842 12.1336C3.65139 12.2207 3.77928 12.3486 3.86643 12.5116C3.95359 12.6745 4 12.8362 4 13.2819V14.7181C4 15.1638 3.95359 15.3255 3.86643 15.4884C3.77928 15.6514 3.65139 15.7793 3.48842 15.8664C3.32546 15.9536 3.16382 16 2.71806 16H1.28194C0.836183 16 0.67454 15.9536 0.511577 15.8664C0.348614 15.7793 0.22072 15.6514 0.133566 15.4884C0.0464128 15.3255 0 15.1638 0 14.7181V13.2819C0 12.8362 0.0464128 12.6745 0.133566 12.5116C0.22072 12.3486 0.348614 12.2207 0.511577 12.1336C0.67454 12.0464 0.836183 12 1.28194 12ZM1 13.2819V14.7181C1 14.8991 1.00221 14.9633 1.0074 14.9926C1.03675 14.9978 1.10095 15 1.28194 15H2.71806C2.89905 15 2.96325 14.9978 2.9926 14.9926C2.99779 14.9633 3 14.8991 3 14.7181V13.2819C3 13.1009 2.99779 13.0367 2.9926 13.0074C2.96325 13.0022 2.89905 13 2.71806 13H1.28194C1.10095 13 1.03675 13.0022 1.0074 13.0074C1.00221 13.0367 1 13.1009 1 13.2819ZM8.71806 12H7.28194C6.83618 12 6.67454 12.0464 6.51158 12.1336C6.34861 12.2207 6.22072 12.3486 6.13357 12.5116C6.04641 12.6745 6 12.8362 6 13.2819V14.7181C6 15.1638 6.04641 15.3255 6.13357 15.4884C6.22072 15.6514 6.34861 15.7793 6.51158 15.8664C6.67454 15.9536 6.83618 16 7.28194 16H8.71806C9.16382 16 9.32546 15.9536 9.48842 15.8664C9.65139 15.7793 9.77928 15.6514 9.86643 15.4884C9.95359 15.3255 10 15.1638 10 14.7181V13.2819C10 12.8362 9.95359 12.6745 9.86643 12.5116C9.77928 12.3486 9.65139 12.2207 9.48842 12.1336C9.32546 12.0464 9.16382 12 8.71806 12ZM7 14.7181V13.2819C7 13.1009 7.00221 13.0367 7.0074 13.0074C7.03675 13.0022 7.10095 13 7.28194 13H8.71806C8.89905 13 8.96325 13.0022 8.9926 13.0074C8.99779 13.0367 9 13.1009 9 13.2819V14.7181C9 14.8991 8.99779 14.9633 8.9926 14.9926C8.96325 14.9978 8.89905 15 8.71806 15H7.28194C7.10095 15 7.03675 14.9978 7.0074 14.9926C7.00221 14.9633 7 14.8991 7 14.7181ZM14.7181 12H13.2819C12.8362 12 12.6745 12.0464 12.5116 12.1336C12.3486 12.2207 12.2207 12.3486 12.1336 12.5116C12.0464 12.6745 12 12.8362 12 13.2819V14.7181C12 15.1638 12.0464 15.3255 12.1336 15.4884C12.2207 15.6514 12.3486 15.7793 12.5116 15.8664C12.6745 15.9536 12.8362 16 13.2819 16H14.7181C15.1638 16 15.3255 15.9536 15.4884 15.8664C15.6514 15.7793 15.7793 15.6514 15.8664 15.4884C15.9536 15.3255 16 15.1638 16 14.7181V13.2819C16 12.8362 15.9536 12.6745 15.8664 12.5116C15.7793 12.3486 15.6514 12.2207 15.4884 12.1336C15.3255 12.0464 15.1638 12 14.7181 12ZM13 14.7181V13.2819C13 13.1009 13.0022 13.0367 13.0074 13.0074C13.0367 13.0022 13.1009 13 13.2819 13H14.7181C14.8991 13 14.9633 13.0022 14.9926 13.0074C14.9978 13.0367 15 13.1009 15 13.2819V14.7181C15 14.8991 14.9978 14.9633 14.9926 14.9926C14.9633 14.9978 14.8991 15 14.7181 15H13.2819C13.1009 15 13.0367 14.9978 13.0074 14.9926C13.0022 14.9633 13 14.8991 13 14.7181ZM7.28194 6H8.71806C9.16382 6 9.32546 6.04641 9.48842 6.13357C9.65139 6.22072 9.77928 6.34861 9.86643 6.51158C9.95359 6.67454 10 6.83618 10 7.28194V8.71806C10 9.16382 9.95359 9.32546 9.86643 9.48842C9.77928 9.65139 9.65139 9.77928 9.48842 9.86643C9.32546 9.95359 9.16382 10 8.71806 10H7.28194C6.83618 10 6.67454 9.95359 6.51158 9.86643C6.34861 9.77928 6.22072 9.65139 6.13357 9.48842C6.04641 9.32546 6 9.16382 6 8.71806V7.28194C6 6.83618 6.04641 6.67454 6.13357 6.51158C6.22072 6.34861 6.34861 6.22072 6.51158 6.13357C6.67454 6.04641 6.83618 6 7.28194 6ZM7 7.28194V8.71806C7 8.89905 7.00221 8.96325 7.0074 8.9926C7.03675 8.99779 7.10095 9 7.28194 9H8.71806C8.89905 9 8.96325 8.99779 8.9926 8.9926C8.99779 8.96325 9 8.89905 9 8.71806V7.28194C9 7.10095 8.99779 7.03675 8.9926 7.0074C8.96325 7.00221 8.89905 7 8.71806 7H7.28194C7.10095 7 7.03675 7.00221 7.0074 7.0074C7.00221 7.03675 7 7.10095 7 7.28194ZM2.71806 6H1.28194C0.836183 6 0.67454 6.04641 0.511577 6.13357C0.348614 6.22072 0.22072 6.34861 0.133566 6.51158C0.0464128 6.67454 0 6.83618 0 7.28194V8.71806C0 9.16382 0.0464128 9.32546 0.133566 9.48842C0.22072 9.65139 0.348614 9.77928 0.511577 9.86643C0.67454 9.95359 0.836183 10 1.28194 10H2.71806C3.16382 10 3.32546 9.95359 3.48842 9.86643C3.65139 9.77928 3.77928 9.65139 3.86643 9.48842C3.95359 9.32546 4 9.16382 4 8.71806V7.28194C4 6.83618 3.95359 6.67454 3.86643 6.51158C3.77928 6.34861 3.65139 6.22072 3.48842 6.13357C3.32546 6.04641 3.16382 6 2.71806 6ZM1 8.71806V7.28194C1 7.10095 1.00221 7.03675 1.0074 7.0074C1.03675 7.00221 1.10095 7 1.28194 7H2.71806C2.89905 7 2.96325 7.00221 2.9926 7.0074C2.99779 7.03675 3 7.10095 3 7.28194V8.71806C3 8.89905 2.99779 8.96325 2.9926 8.9926C2.96325 8.99779 2.89905 9 2.71806 9H1.28194C1.10095 9 1.03675 8.99779 1.0074 8.9926C1.00221 8.96325 1 8.89905 1 8.71806ZM8.71806 0H7.28194C6.83618 0 6.67454 0.0464128 6.51158 0.133566C6.34861 0.22072 6.22072 0.348614 6.13357 0.511577C6.04641 0.67454 6 0.836183 6 1.28194V2.71806C6 3.16382 6.04641 3.32546 6.13357 3.48842C6.22072 3.65139 6.34861 3.77928 6.51158 3.86643C6.67454 3.95359 6.83618 4 7.28194 4H8.71806C9.16382 4 9.32546 3.95359 9.48842 3.86643C9.65139 3.77928 9.77928 3.65139 9.86643 3.48842C9.95359 3.32546 10 3.16382 10 2.71806V1.28194C10 0.836183 9.95359 0.67454 9.86643 0.511577C9.77928 0.348614 9.65139 0.22072 9.48842 0.133566C9.32546 0.0464128 9.16382 0 8.71806 0ZM7 2.71806V1.28194C7 1.10095 7.00221 1.03675 7.0074 1.0074C7.03675 1.00221 7.10095 1 7.28194 1H8.71806C8.89905 1 8.96325 1.00221 8.9926 1.0074C8.99779 1.03675 9 1.10095 9 1.28194V2.71806C9 2.89905 8.99779 2.96325 8.9926 2.9926C8.96325 2.99779 8.89905 3 8.71806 3H7.28194C7.10095 3 7.03675 2.99779 7.0074 2.9926C7.00221 2.96325 7 2.89905 7 2.71806ZM1.28194 0H2.71806C3.16382 0 3.32546 0.0464128 3.48842 0.133566C3.65139 0.22072 3.77928 0.348614 3.86643 0.511577C3.95359 0.67454 4 0.836183 4 1.28194V2.71806C4 3.16382 3.95359 3.32546 3.86643 3.48842C3.77928 3.65139 3.65139 3.77928 3.48842 3.86643C3.32546 3.95359 3.16382 4 2.71806 4H1.28194C0.836183 4 0.67454 3.95359 0.511577 3.86643C0.348614 3.77928 0.22072 3.65139 0.133566 3.48842C0.0464128 3.32546 0 3.16382 0 2.71806V1.28194C0 0.836183 0.0464128 0.67454 0.133566 0.511577C0.22072 0.348614 0.348614 0.22072 0.511577 0.133566C0.67454 0.0464128 0.836183 0 1.28194 0ZM1 1.28194V2.71806C1 2.89905 1.00221 2.96325 1.0074 2.9926C1.03675 2.99779 1.10095 3 1.28194 3H2.71806C2.89905 3 2.96325 2.99779 2.9926 2.9926C2.99779 2.96325 3 2.89905 3 2.71806V1.28194C3 1.10095 2.99779 1.03675 2.9926 1.0074C2.96325 1.00221 2.89905 1 2.71806 1H1.28194C1.10095 1 1.03675 1.00221 1.0074 1.0074C1.00221 1.03675 1 1.10095 1 1.28194Z" fill="#333333"/>
</svg>
