<svg width="16" height="16" viewBox="0 0 16 16"  xmlns="http://www.w3.org/2000/svg">
<path  clip-rule="evenodd" d="M13.5 7C14.3281 7 15 7.67188 15 8.5C14.9984 9.32812 14.3281 9.99844 13.5 10C12.6719 10 12 9.32812 12 8.5C12 7.67188 12.6719 7 13.5 7ZM13.5 8C13.2234 8 13 8.22344 13 8.5C13 8.77656 13.2234 9 13.5 9C13.7766 9 14 8.77656 14 8.5C14 8.22344 13.7766 8 13.5 8ZM8.5 7C9.32812 7 10 7.67188 10 8.5C9.99844 9.32812 9.32812 9.99844 8.5 10C7.67188 10 7 9.32812 7 8.5C7 7.67188 7.67188 7 8.5 7ZM8.5 8C8.22344 8 8 8.22344 8 8.5C8 8.77656 8.22344 9 8.5 9C8.77656 9 9 8.77656 9 8.5C9 8.22344 8.77656 8 8.5 8ZM3.5 7C4.32812 7 5 7.67188 5 8.5C4.99844 9.32812 4.32812 9.99844 3.5 10C2.67188 10 2 9.32812 2 8.5C2 7.67188 2.67188 7 3.5 7ZM3.5 8C3.22344 8 3 8.22344 3 8.5C3 8.77656 3.22344 9 3.5 9C3.77656 9 4 8.77656 4 8.5C4 8.22344 3.77656 8 3.5 8Z" />
</svg>
