<svg width="16" height="16" viewBox="0 0 16 16" fill="none" xmlns="http://www.w3.org/2000/svg">
<path fill-rule="evenodd" clip-rule="evenodd" d="M8 1C11.866 1 15 4.13401 15 8C15 11.866 11.866 15 8 15C4.13401 15 1 11.866 1 8C1 4.13401 4.13401 1 8 1ZM3.41851 4.12554C2.53359 5.17089 2 6.52313 2 8C2 11.3137 4.68629 14 8 14C9.47687 14 10.8291 13.4664 11.8745 12.5815L3.41851 4.12554ZM4.12562 3.41844C5.17096 2.53356 6.52317 2 8 2C11.3137 2 14 4.68629 14 8C14 9.47683 13.4664 10.829 12.5816 11.8744L4.12562 3.41844ZM12.26 12.2252L12.2252 12.26C12.2369 12.2484 12.2484 12.2369 12.26 12.2252Z" fill="black"/>
</svg>
