<svg width="16" height="16" viewBox="0 0 16 16"  xmlns="http://www.w3.org/2000/svg">
<path  clip-rule="evenodd" d="M9.75 13.9979C9.75 14.5501 9.30228 14.9979 8.75 14.9979H7.25C6.69772 14.9979 6.25 14.5501 6.25 13.9979H9.75ZM8.39977 0.999817C8.676 0.999817 8.8999 1.22381 8.89977 1.50004L8.89956 1.96162C10.9161 2.35508 12.4856 4.04666 12.6617 6.16531L13.173 12.0444L13.6252 12.0448C13.9013 12.045 14.125 12.2689 14.125 12.545C14.125 12.8212 13.9011 13.0451 13.6248 13.0451H2.37518C2.09894 13.0451 1.875 12.8212 1.875 12.545C1.875 12.2689 2.09872 12.045 2.37482 12.0448L2.827 12.0444L3.33826 6.16531C3.51437 4.04666 5.08391 2.35508 7.10044 1.96162L7.10023 1.50004C7.1001 1.22381 7.324 0.999817 7.60023 0.999817H8.39977ZM8 2.875C6.08692 2.875 4.4933 4.34164 4.33482 6.24815L3.83657 11.9748H12.1634L11.6652 6.24815C11.5067 4.34164 9.91308 2.875 8 2.875Z" />
</svg>
