<svg width="16" height="16" viewBox="0 0 16 16" fill="none" xmlns="http://www.w3.org/2000/svg">
<g id="3.&#231;&#138;&#182;&#230;&#128;&#129;&#229;&#155;&#190;&#230;&#160;&#135;/16x16/notice-triangle-s">
<path id="Exclude" fill-rule="evenodd" clip-rule="evenodd" d="M14.7282 11.4289C15.0276 11.9771 15.018 12.6252 14.6994 13.1625C14.3864 13.6971 13.8121 14.0238 13.1928 14.0211H2.75159C2.13225 14.0238 1.5594 13.6971 1.24632 13.1625C0.927761 12.6252 0.918191 11.9771 1.21761 11.4289L6.43889 1.90781C6.59339 1.62344 6.82444 1.38828 7.10608 1.22695C7.64475 0.923439 8.30237 0.924806 8.84104 1.22832C9.12268 1.38828 9.35374 1.62481 9.50823 1.90918L14.7282 11.4289ZM7.97288 12.2711C8.4555 12.2711 8.84788 11.8787 8.84788 11.3961C8.84788 10.9135 8.4555 10.5211 7.97288 10.5211C7.49026 10.5211 7.09788 10.9135 7.09788 11.3961C7.09788 11.8787 7.49026 12.2711 7.97288 12.2711ZM8.84788 5.25742C8.84788 5.25469 8.84788 5.25059 8.84788 5.24785C8.84788 4.76524 8.4555 4.37285 7.97288 4.37285C7.49026 4.37285 7.09788 4.76524 7.09788 5.24785V5.28203C7.09788 5.33262 7.10335 5.3832 7.11292 5.43379L7.53811 9.25781C7.56136 9.46152 7.72268 9.62149 7.92503 9.64336C8.16428 9.66934 8.38167 9.49707 8.40764 9.25645L8.83284 5.43242C8.84241 5.38184 8.84788 5.33125 8.84788 5.28067V5.25742Z" fill="black"/>
</g>
</svg>
