<svg width="16" height="16" viewBox="0 0 16 16"  xmlns="http://www.w3.org/2000/svg">
<path  clip-rule="evenodd" d="M7.5 0C7.22386 0 7 0.223858 7 0.5V1.09263C4.64231 1.53487 2.80673 3.51247 2.61652 5.98527L2.07692 13H1.5C1.22386 13 1 13.2239 1 13.5C1 13.7761 1.22386 14 1.5 14H2H14H14.5C14.7761 14 15 13.7761 15 13.5C15 13.2239 14.7761 13 14.5 13H13.9231L13.3835 5.98527C13.1933 3.51247 11.3577 1.53487 9 1.09263V0.5C9 0.223858 8.77614 0 8.5 0H7.5ZM8 2C5.70116 2 3.78988 3.7699 3.61357 6.06197L3.07988 13H12.9201L12.3864 6.06197C12.2101 3.7699 10.2988 2 8 2ZM9 16C9.55228 16 10 15.5523 10 15H6C6 15.5523 6.44772 16 7 16H9Z" />
</svg>
