<svg width="16" height="16" viewBox="0 0 16 16" fill="none" xmlns="http://www.w3.org/2000/svg">
<path opacity="0.8" fill-rule="evenodd" clip-rule="evenodd" d="M13.5063 1C13.7517 1 13.9559 1.17688 13.9982 1.41012L14.0063 1.5V6.49725C14.0063 6.7734 13.7824 6.99725 13.5063 6.99725C13.2608 6.99725 13.0567 6.82038 13.0143 6.58713L13.0063 6.49725V2H1.99268V14.0018H6.83354C7.10968 14.0018 7.33354 14.2256 7.33354 14.5018C7.33354 14.7472 7.15667 14.9514 6.92342 14.9937L6.83354 15.0018H1.49268C1.24722 15.0018 1.04307 14.8249 1.00073 14.5916L0.992676 14.5018V1.5C0.992676 1.25454 1.16955 1.05039 1.4028 1.00806L1.49268 1H13.5063ZM10.9282 7.99832C12.5477 7.99832 13.8606 9.31122 13.8606 10.9308C13.8606 11.5805 13.6493 12.1808 13.2917 12.6668L13.3364 12.7029L14.6071 13.9736C14.7049 14.0714 14.8026 14.2669 14.8026 14.3646C14.8026 14.6578 14.6071 14.8533 14.3139 14.8533C14.1509 14.8533 14.0559 14.7855 13.9722 14.7062L12.6522 13.3871C12.6343 13.3692 12.6197 13.3513 12.6077 13.3334C12.1326 13.6676 11.5532 13.8632 10.9282 13.8632C9.30864 13.8632 7.9958 12.5503 7.9958 10.9308C7.9958 9.31122 9.30862 7.99832 10.9282 7.99832ZM10.9272 8.97673C10.2185 8.96108 9.55689 9.3303 9.19803 9.94161C8.83917 10.5529 8.83939 11.3106 9.19854 11.9217C9.55771 12.5329 10.2195 12.9017 10.9282 12.8857C11.9906 12.8617 12.8392 11.9934 12.8389 10.9308C12.8386 9.86807 11.9896 9.00023 10.9272 8.97673ZM6.49882 7.99832C6.77496 7.99832 6.99882 8.22218 6.99882 8.49832C6.99882 8.77446 6.77496 8.99832 6.49882 8.99832H3.49882C3.22267 8.99832 2.99882 8.77446 2.99882 8.49832C2.99882 8.22218 3.22267 7.99832 3.49882 7.99832H6.49882ZM11.4988 5.99725C11.775 5.99725 11.9988 6.22111 11.9988 6.49725C11.9988 6.7734 11.775 6.99725 11.4988 6.99725H3.49882C3.22267 6.99725 2.99882 6.7734 2.99882 6.49725C2.99882 6.22111 3.22267 5.99725 3.49882 5.99725H11.4988ZM11.4988 3.99619C11.775 3.99619 11.9988 4.22005 11.9988 4.49619C11.9988 4.77233 11.775 4.99619 11.4988 4.99619H3.49882C3.22267 4.99619 2.99882 4.77233 2.99882 4.49619C2.99882 4.22005 3.22267 3.99619 3.49882 3.99619H11.4988Z" fill="black"/>
</svg>
