<svg width="16" height="16" viewBox="0 0 16 16"  xmlns="http://www.w3.org/2000/svg">
<path  clip-rule="evenodd" d="M5 2V3H3V14H13V3H11V2H13C13.5523 2 14 2.44772 14 3V14C14 14.5523 13.5523 15 13 15H3C2.44772 15 2 14.5523 2 14V3C2 2.44772 2.44772 2 3 2H5ZM5.5 9H10.5C10.7761 9 11 9.22386 11 9.5C11 9.77614 10.7761 10 10.5 10H5.5C5.22386 10 5 9.77614 5 9.5C5 9.22386 5.22386 9 5.5 9ZM5.5 6H10.5C10.7761 6 11 6.22386 11 6.5C11 6.77614 10.7761 7 10.5 7H5.5C5.22386 7 5 6.77614 5 6.5C5 6.22386 5.22386 6 5.5 6ZM6 2V3H10V2H6ZM6 1H10C10.5523 1 11 1.44772 11 2V3C11 3.55228 10.5523 4 10 4H6C5.44772 4 5 3.55228 5 3V2C5 1.44772 5.44772 1 6 1Z" />
</svg>
