<svg width="16" height="16" viewBox="0 0 16 16" fill="none" xmlns="http://www.w3.org/2000/svg">
<path fill-rule="evenodd" clip-rule="evenodd" d="M13.5 14H12.5V11.25C12.5 10.9344 12.3516 10.6391 12.0984 10.45L8.83281 8L12.0984 5.55C12.35 5.36094 12.4984 5.06406 12.4984 4.75V2H13.4984C13.775 2 13.9984 1.77656 13.9984 1.5C13.9984 1.22344 13.775 1 13.4984 1H2.5C2.22344 1 2 1.22344 2 1.5C2 1.77656 2.22344 2 2.5 2H3.5V4.75C3.5 5.06406 3.64844 5.36094 3.9 5.55L7.16563 8L3.9 10.45C3.64844 10.6391 3.5 10.9359 3.5 11.25V14H2.5C2.22344 14 2 14.2234 2 14.5C2 14.7766 2.22344 15 2.5 15H13.5C13.7766 15 14 14.7766 14 14.5C14 14.2234 13.7766 14 13.5 14ZM4.5 11.25L8 8.625L11.5 11.25V14H4.5V11.25ZM4.5 4.75V2H11.5V4.75L8 7.375L4.5 4.75Z" fill="black"/>
</svg>
