<svg width="16" height="16" viewBox="0 0 16 16"  xmlns="http://www.w3.org/2000/svg">
<path  d="M13.4732 10.3649C15.5077 11.6628 14.8406 13.0185 12.3805 14.3801C10.0435 15.6736 7.24559 13.7379 4.49193 10.9843L4.0751 10.5604L3.66226 10.1245C1.37148 7.65457 -0.0584654 5.19412 1.10055 3.10011C2.46215 0.640076 3.81786 -0.0270538 5.11578 2.00745C6.23468 3.76134 5.91691 4.47536 5.54743 5.07179L5.37177 5.35283C5.09366 5.81488 4.69653 6.20189 4.80546 6.66758C4.85046 6.85995 5.27576 7.54351 6.40171 8.69492L6.58536 8.8806C7.84914 10.1444 8.63415 10.6333 8.81306 10.6752C9.23641 10.7742 9.59474 10.455 10.0035 10.1872L10.481 9.88921L10.6241 9.80807L10.7752 9.73448C11.3207 9.49453 12.0589 9.46257 13.4732 10.3649ZM11.1174 10.6779L11.0105 10.7376L10.5515 11.0237L10.1637 11.2867L9.98654 11.3948C9.53509 11.6551 9.08948 11.7668 8.58528 11.6489C8.12183 11.5405 7.28415 10.9341 6.28303 9.9825L5.87437 9.5838L5.48999 9.19042C4.53093 8.1852 3.94474 7.3784 3.83175 6.89536C3.72691 6.44718 3.80351 6.04529 4.0047 5.64445L4.12938 5.41933L4.43504 4.96219L4.74564 4.46416C4.9879 4.03953 4.97889 3.7206 4.48228 2.88434L4.27273 2.54528L4.13519 2.34076C3.48503 1.43138 3.02875 1.68139 1.97547 3.58437C1.16655 5.04587 2.105 7.08191 4.78812 9.85925L5.19903 10.2772C8.19602 13.2742 10.3616 14.3546 11.8963 13.5052L12.2666 13.2955C13.8861 12.3544 13.9963 11.919 13.0417 11.2775L12.7558 11.0956C11.8332 10.5302 11.4556 10.4984 11.1174 10.6779Z" />
</svg>
