<svg width="16" height="16" viewBox="0 0 16 16"  xmlns="http://www.w3.org/2000/svg">
<path opacity="0.8"  clip-rule="evenodd" d="M0.605873 2.81427L0.691961 2.84131L3.02188 3.80929C3.13658 3.85694 3.22837 3.94506 3.28107 4.05519L3.31301 4.14162L5.18462 11.1249C5.85134 11.3044 6.40689 11.8245 6.59844 12.5394L14.8088 10.3394C15.0755 10.268 15.3497 10.4262 15.4212 10.693C15.4927 10.9597 15.3344 11.2339 15.0676 11.3054L6.59868 13.5751C6.41925 14.2418 5.89911 14.7973 5.18423 14.9889C4.11729 15.2748 3.02062 14.6416 2.73474 13.5747C2.46185 12.5562 3.02636 11.5107 4.00619 11.1691L4.149 11.125L2.41082 4.63829L0.3083 3.76479C0.0532898 3.65884 -0.0675514 3.36623 0.0383937 3.11122C0.120795 2.91288 0.316119 2.7957 0.518845 2.80327L0.605873 2.81427ZM4.40777 12.0911C3.8743 12.234 3.55772 12.7824 3.70066 13.3158C3.8436 13.8493 4.39194 14.1659 4.92541 14.023C5.45887 13.88 5.77546 13.3317 5.63251 12.7982C5.48957 12.2647 4.94124 11.9482 4.40777 12.0911ZM12.2553 2.74143L13.8082 8.53698C13.9511 9.07045 13.6346 9.61879 13.1011 9.76173L7.30555 11.3146C6.77208 11.4576 6.22374 11.141 6.0808 10.6075L4.52789 4.81198C4.38495 4.27852 4.70153 3.73018 5.23499 3.58724L11.0306 2.03432C11.564 1.89138 12.1124 2.20796 12.2553 2.74143ZM11.2894 3.00025L5.49381 4.55316L7.04673 10.3487L12.8423 8.7958L11.2894 3.00025Z" />
</svg>
