<svg width="16" height="16" viewBox="0 0 16 16" fill="none" xmlns="http://www.w3.org/2000/svg">
<path fill-rule="evenodd" clip-rule="evenodd" d="M13.0076 7H13.0394V3.5C13.0394 3.36719 12.9862 3.24062 12.8925 3.14687L10.8925 1.14687C10.7987 1.05312 10.6722 1 10.5394 1H5.03936C4.4878 1 4.03936 1.44844 4.03936 2V7H4.02441C2.91973 7.00156 2.02598 7.89531 2.02441 9V12C2.02441 12.5516 2.47285 13 3.02441 13H4.03936V14C4.03936 14.5516 4.4878 15 5.03936 15H12.0394C12.5909 15 13.0394 14.5516 13.0394 14V13H14.0076C14.5591 13 15.0076 12.5516 15.0076 12V9C15.006 7.89531 14.1122 7.00156 13.0076 7ZM12.0394 14H5.03936V10.9527H12.0394V14ZM14.0394 12H13.0394V10.9527C13.0394 10.4012 12.5909 9.95271 12.0394 9.95271H5.03936C4.4878 9.95271 4.03936 10.4012 4.03936 10.9527V12H3.01804V9C3.01804 8.44844 3.46648 8 4.01804 8H13.0394C13.5909 8 14.0394 8.44844 14.0394 9V12ZM11.0394 2.70781L11.3315 3H11.0394V2.70781ZM5.03936 2H10.0394V3.5C10.0394 3.77656 10.2628 4 10.5394 4H12.0394V7H5.03936V2Z" fill="black"/>
</svg>
