<svg width="16" height="16" viewBox="0 0 16 16"  xmlns="http://www.w3.org/2000/svg">
<path  d="M13.1449 1C13.6695 1 14.105 1.40545 14.1424 1.92875L14.9995 13.9288C15.0389 14.4796 14.6242 14.9581 14.0733 14.9975L14.002 15H3C2.44772 15 2 14.5523 2 14L2.00254 13.9288L2.85968 1.92875C2.89706 1.40545 3.3325 1 3.85714 1H13.1449ZM13.1449 2H3.85714L3 14H14.002L13.1449 2ZM10.926 4.01947C11.2022 4.01947 11.426 4.24333 11.426 4.51947C11.426 6.68882 10.3699 8.01947 8.42602 8.01947C6.48217 8.01947 5.42602 6.68882 5.42602 4.51947C5.42602 4.24333 5.64988 4.01947 5.92602 4.01947C6.20217 4.01947 6.42602 4.24333 6.42602 4.51947C6.42602 6.18068 7.09178 7.01947 8.42602 7.01947C9.76027 7.01947 10.426 6.18068 10.426 4.51947C10.426 4.24333 10.6499 4.01947 10.926 4.01947Z" />
</svg>
