<svg width="16" height="16" viewBox="0 0 16 16" fill="none" xmlns="http://www.w3.org/2000/svg">
<path fill-rule="evenodd" clip-rule="evenodd" d="M8 1C11.866 1 15 4.13401 15 8C15 11.866 11.866 15 8 15C4.13401 15 1 11.866 1 8C1 4.13401 4.13401 1 8 1ZM8 2C4.68629 2 2 4.68629 2 8C2 11.3137 4.68629 14 8 14C11.3137 14 14 11.3137 14 8C14 4.68629 11.3137 2 8 2ZM7.98751 10.2375C8.40172 10.2375 8.73751 10.5733 8.73751 10.9875C8.73751 11.4017 8.40172 11.7375 7.98751 11.7375C7.57329 11.7375 7.23751 11.4017 7.23751 10.9875C7.23751 10.5733 7.57329 10.2375 7.98751 10.2375ZM8.117 4.60513C9.97012 4.60513 10.7746 6.50497 9.94298 7.72186C9.76926 7.97607 9.56587 8.14547 9.2705 8.31455L9.11487 8.39945L8.95825 8.47994C8.56296 8.68261 8.49391 8.75809 8.49391 9.02099C8.49391 9.29713 8.27005 9.52099 7.99391 9.52099C7.71777 9.52099 7.49391 9.29713 7.49391 9.02099C7.49391 8.34167 7.76504 7.99682 8.35914 7.66626L8.76655 7.45066C8.94241 7.35025 9.04308 7.26634 9.11736 7.15765C9.52116 6.56675 9.11397 5.60513 8.117 5.60513C7.41792 5.60513 6.82815 6.01273 6.75716 6.55276L6.75 6.66245L6.74194 6.75233C6.69961 6.98557 6.49546 7.16245 6.25 7.16245C5.97386 7.16245 5.75 6.93859 5.75 6.66245C5.75 5.44257 6.87194 4.60513 8.117 4.60513Z" fill="black"/>
</svg>
