<svg width="16" height="16" viewBox="0 0 16 16"  xmlns="http://www.w3.org/2000/svg">
<path  d="M14.3251 7.23999C13.946 4.03199 11.2395 1.63199 7.99977 1.63199C6.71977 1.63199 5.48777 2.00799 4.43977 2.71999L5.05577 3.64799C5.92777 3.06399 6.93577 2.75199 7.99177 2.75199C10.6253 2.75199 12.8188 4.66436 13.1899 7.23999H11.9518C11.8638 7.23999 11.7998 7.34399 11.8478 7.42399L13.5998 10.56C13.6478 10.64 13.7678 10.64 13.8078 10.56L15.5518 7.42399C15.5998 7.33599 15.5438 7.23999 15.4478 7.23999H14.3251ZM7.99977 14.368C4.48777 14.368 1.63177 11.512 1.63177 7.99999C1.63177 7.95466 1.63266 7.90932 1.63414 7.86399H0.543767C0.455767 7.86399 0.391767 7.75999 0.439767 7.67999L2.19177 4.54399C2.23177 4.45599 2.35177 4.45599 2.39977 4.54399L4.14377 7.67999C4.19177 7.76799 4.13577 7.86399 4.03977 7.86399H2.7603C2.75977 7.90932 2.75977 7.95466 2.75977 7.99999C2.75977 10.896 5.11177 13.248 8.00777 13.248C9.35977 13.248 10.6398 12.736 11.6158 11.808L12.3838 12.624C11.1918 13.752 9.63977 14.368 7.99977 14.368Z" />
</svg>
