<svg width="16" height="17" viewBox="0 0 16 17"  xmlns="http://www.w3.org/2000/svg">
<path d="M6.8374 15.4963C6.5624 15.4963 6.3374 15.2713 6.3374 14.9963V11.3213C6.3374 11.0463 6.5624 10.8213 6.8374 10.8213C7.1124 10.8213 7.3374 11.0463 7.3374 11.3213V14.9963C7.3374 15.2713 7.1124 15.4963 6.8374 15.4963Z" />
<path d="M6.94998 11.7088C6.82498 11.7088 6.71248 11.6713 6.62498 11.5838C6.41248 11.4088 6.38748 11.0838 6.57498 10.8838L13.6375 2.60884C13.8125 2.39634 14.1375 2.37134 14.3375 2.55884C14.55 2.73384 14.575 3.05884 14.3875 3.25884L7.33748 11.5338C7.23748 11.6588 7.08748 11.7088 6.94998 11.7088ZM12.425 14.9963C12.35 14.9963 12.275 14.9838 12.2 14.9463L8.47498 13.1213C8.22498 12.9963 8.12498 12.6963 8.24998 12.4463C8.37498 12.1963 8.67498 12.0963 8.92498 12.2213L12.65 14.0463C12.9 14.1713 13 14.4713 12.875 14.7213C12.7875 14.8963 12.6 14.9963 12.425 14.9963ZM5.07498 11.1588C4.98748 11.1588 4.91248 11.1338 4.83748 11.0963L1.79998 9.47134C1.56248 9.34634 1.46248 9.03384 1.59998 8.79634C1.72498 8.55884 2.03748 8.45884 2.27498 8.59634L5.31248 10.2213C5.54998 10.3463 5.64998 10.6588 5.51248 10.8963C5.42498 11.0588 5.24998 11.1588 5.07498 11.1588Z" />
<path d="M2.03751 9.49634C1.85001 9.49634 1.67501 9.39634 1.58751 9.22134C1.46251 8.97134 1.56251 8.67134 1.81251 8.54634L13.7875 2.48384C14.0375 2.35884 14.3375 2.45884 14.4625 2.70884C14.5875 2.95884 14.4875 3.25884 14.2375 3.38384L2.26251 9.44634C2.18751 9.48384 2.11251 9.49634 2.03751 9.49634Z" />
<path d="M12.4498 14.9963H12.3873C12.1123 14.9588 11.9248 14.7088 11.9623 14.4338L13.5123 2.90884C13.5498 2.63384 13.7998 2.44634 14.0748 2.48384C14.3498 2.52134 14.5373 2.77134 14.4998 3.04634L12.9498 14.5713C12.9123 14.8213 12.6998 14.9963 12.4498 14.9963Z" />
</svg>
