<svg width="16" height="16" viewBox="0 0 16 16"  xmlns="http://www.w3.org/2000/svg">
<path  clip-rule="evenodd" d="M4.00659 6.01932C2.90202 6.01932 2.00659 6.91475 2.00659 8.01932V13.0193C2.00659 14.1239 2.90202 15.0193 4.00659 15.0193H11.0066C12.1112 15.0193 13.0066 14.1239 13.0066 13.0193V8.01932C13.0066 6.91475 12.1112 6.01932 11.0066 6.01932H4.00659ZM4.00659 7.01932H11.0066C11.5589 7.01932 12.0066 7.46703 12.0066 8.01932V13.0193C12.0066 13.5716 11.5589 14.0193 11.0066 14.0193H4.00659C3.45431 14.0193 3.00659 13.5716 3.00659 13.0193V8.01932C3.00659 7.46703 3.45431 7.01932 4.00659 7.01932ZM7.63096 1.42504L6.07533 2.98068C5.90176 3.15424 5.88248 3.42367 6.01747 3.61854L6.07533 3.68778L7.63096 5.24342C7.82623 5.43868 8.14281 5.43868 8.33807 5.24342C8.53333 5.04816 8.53333 4.73157 8.33807 4.53631L7.68915 3.88662C9.97947 3.9293 11.3307 4.23673 12.5625 5.10904C13.5592 5.81483 14.241 6.93289 14.6043 8.48786C14.6671 8.75676 14.9361 8.92381 15.205 8.86097C15.4739 8.79814 15.6409 8.52922 15.5781 8.26032C15.1622 6.48075 14.3509 5.15008 13.1404 4.29294C11.6844 3.26189 10.1376 2.9218 7.58653 2.88478L8.33807 2.13215C8.53333 1.93689 8.53333 1.6203 8.33807 1.42504C8.14281 1.22978 7.82623 1.22978 7.63096 1.42504Z" />
</svg>
