<svg width="16" height="16" viewBox="0 0 16 16"  xmlns="http://www.w3.org/2000/svg">
<path  clip-rule="evenodd" d="M12.0373 6.04254C13.1419 6.04254 14.0373 6.93797 14.0373 8.04254V13.0425C14.0373 14.1471 13.1419 15.0425 12.0373 15.0425H5.0373C3.93273 15.0425 3.0373 14.1471 3.0373 13.0425V8.04254C3.0373 6.93797 3.93273 6.04254 5.0373 6.04254H12.0373ZM12.0373 7.04254H5.0373C4.48501 7.04254 4.0373 7.49026 4.0373 8.04254V13.0425C4.0373 13.5948 4.48501 14.0425 5.0373 14.0425H12.0373C12.5896 14.0425 13.0373 13.5948 13.0373 13.0425V8.04254C13.0373 7.49026 12.5896 7.04254 12.0373 7.04254ZM8.41298 1.44817L9.96862 3.00381C10.1422 3.17738 10.1615 3.4468 10.0265 3.64167L9.96862 3.71092L8.41298 5.26655C8.21772 5.46181 7.90114 5.46181 7.70587 5.26655C7.51061 5.07129 7.51061 4.75471 7.70587 4.55944L8.3548 3.90975C6.06448 3.95243 4.71328 4.25986 3.48143 5.13217C2.48474 5.83796 1.80298 6.95602 1.43963 8.51099C1.3768 8.77989 1.10788 8.94694 0.838978 8.88411C0.570079 8.82127 0.403031 8.55235 0.465865 8.28345C0.881697 6.50389 1.69309 5.17321 2.90352 4.31607C4.35954 3.28502 5.90636 2.94493 8.45741 2.90791L7.70587 2.15528C7.51061 1.96002 7.51061 1.64344 7.70587 1.44817C7.90114 1.25291 8.21772 1.25291 8.41298 1.44817Z" />
</svg>
