<svg width="16" height="16" viewBox="0 0 16 16"  xmlns="http://www.w3.org/2000/svg">
<path  clip-rule="evenodd" d="M2 6.28571L8 2L14 6.28571V13.7711H2V6.28571ZM1 6.28571C1 5.96276 1.15597 5.65969 1.41876 5.47198L7.41876 1.18627C7.76646 0.937911 8.23354 0.937911 8.58124 1.18627L14.5812 5.47198C14.844 5.65969 15 5.96276 15 6.28571V13.7711C15 14.3234 14.5523 14.7711 14 14.7711H2C1.44772 14.7711 1 14.3234 1 13.7711V6.28571ZM3 11.2721C3 10.9959 3.22386 10.7721 3.5 10.7721H4.5C4.77614 10.7721 5 10.9959 5 11.2721V12.2721C5 12.5482 4.77614 12.7721 4.5 12.7721H3.5C3.22386 12.7721 3 12.5482 3 12.2721V11.2721ZM6.5 10.7721C6.22386 10.7721 6 10.9959 6 11.2721V12.2721C6 12.5482 6.22386 12.7721 6.5 12.7721H7.5C7.77614 12.7721 8 12.5482 8 12.2721V11.2721C8 10.9959 7.77614 10.7721 7.5 10.7721H6.5ZM3 8.27207C3 7.99593 3.22386 7.77207 3.5 7.77207H4.5C4.77614 7.77207 5 7.99593 5 8.27207V9.27207C5 9.54821 4.77614 9.77207 4.5 9.77207H3.5C3.22386 9.77207 3 9.54821 3 9.27207V8.27207Z" />
</svg>
