<svg width="16" height="16" viewBox="0 0 16 16" fill="none" xmlns="http://www.w3.org/2000/svg">
<path fill-rule="evenodd" clip-rule="evenodd" d="M5.52513 5.63204L7.99957 8.1066L10.4749 5.63204C10.6484 5.45848 10.9179 5.43919 11.1127 5.57419L11.182 5.63204C11.3555 5.80561 11.3748 6.07503 11.2398 6.2699L11.182 6.33915L8.70657 8.81359L10.2261 10.333C10.5992 10.1117 11.0347 9.98457 11.5 9.98457C12.8807 9.98457 14 11.1039 14 12.4846C14 13.8653 12.8807 14.9846 11.5 14.9846C10.1193 14.9846 9 13.8653 9 12.4846C9 11.9309 9.17997 11.4193 9.48459 11.005L7.99957 9.52059L6.51541 11.005C6.82003 11.4193 7 11.9309 7 12.4846C7 13.8653 5.88071 14.9846 4.5 14.9846C3.11929 14.9846 2 13.8653 2 12.4846C2 11.1039 3.11929 9.98457 4.5 9.98457C4.96526 9.98457 5.40083 10.1117 5.7739 10.333L7.29257 8.81359L4.81802 6.33915C4.62276 6.14389 4.62276 5.8273 4.81802 5.63204C5.01328 5.43678 5.32986 5.43678 5.52513 5.63204ZM11.5 10.9846C10.6716 10.9846 10 11.6561 10 12.4846C10 13.313 10.6716 13.9846 11.5 13.9846C12.3284 13.9846 13 13.313 13 12.4846C13 11.6561 12.3284 10.9846 11.5 10.9846ZM4.5 10.9846C3.67157 10.9846 3 11.6561 3 12.4846C3 13.313 3.67157 13.9846 4.5 13.9846C5.32843 13.9846 6 13.313 6 12.4846C6 11.6561 5.32843 10.9846 4.5 10.9846ZM13 2C13.5128 2 13.9355 2.38604 13.9933 2.88338L14 3V7.52678C14 7.78813 13.7761 8 13.5 8C13.2545 8 13.0504 7.8326 13.0081 7.61184L13 7.52678V2.94645H3V7.52678C3 7.78813 2.77614 8 2.5 8C2.25454 8 2.05039 7.8326 2.00806 7.61184L2 7.52678V3C2 2.48716 2.38604 2.06449 2.88338 2.00673L3 2H13Z" fill="black"/>
</svg>
