<svg width="16" height="16" viewBox="0 0 16 16"  xmlns="http://www.w3.org/2000/svg">
<path  clip-rule="evenodd" d="M6.99365 0.993744C10.3074 0.993744 12.9937 3.68004 12.9937 6.99374C12.9937 8.46891 12.4613 9.81973 11.5782 10.8646L14.857 14.1432C15.0523 14.3384 15.0523 14.655 14.857 14.8503C14.6835 15.0238 14.4141 15.0431 14.2192 14.9081L14.1499 14.8503L10.8715 11.5724C9.82568 12.459 8.47211 12.9937 6.99365 12.9937C3.67994 12.9937 0.993652 10.3075 0.993652 6.99374C0.993652 3.68004 3.67994 0.993744 6.99365 0.993744ZM6.99365 1.99374C4.23223 1.99374 1.99365 4.23232 1.99365 6.99374C1.99365 9.75517 4.23223 11.9937 6.99365 11.9937C9.75508 11.9937 11.9937 9.75517 11.9937 6.99374C11.9937 4.23232 9.75508 1.99374 6.99365 1.99374Z" />
</svg>
