<svg width="16" height="16" viewBox="0 0 16 16"  xmlns="http://www.w3.org/2000/svg">
<path  clip-rule="evenodd" d="M7.98158 0.686584C8.36127 0.686584 8.67507 0.968738 8.72473 1.33481L8.73158 1.43658L8.73089 7.22558L14.5213 7.22627C14.9355 7.22627 15.2713 7.56205 15.2713 7.97627C15.2713 8.35596 14.9891 8.66976 14.623 8.71942L14.5213 8.72627L8.73089 8.72558L8.73158 14.516C8.73158 14.9302 8.39579 15.266 7.98158 15.266C7.60188 15.266 7.28809 14.9838 7.23842 14.6177L7.23158 14.516L7.23089 8.72558L1.44189 8.72627C1.02768 8.72627 0.691895 8.39048 0.691895 7.97627C0.691895 7.59657 0.974048 7.28278 1.34012 7.23311L1.44189 7.22627L7.23089 7.22558L7.23158 1.43658C7.23158 1.02237 7.56736 0.686584 7.98158 0.686584Z" />
</svg>
