<svg width="16" height="16" viewBox="0 0 16 16"  xmlns="http://www.w3.org/2000/svg">
<path  d="M9.42424 1C9.81933 1 10.1396 1.31357 10.1396 1.70022L10.14 2.88453C10.6106 3.07329 11.0525 3.32361 11.4541 3.62787L12.5026 3.03605C12.8447 2.84265 13.2822 2.95742 13.4798 3.29241L14.904 5.70759C15.1016 6.04257 14.9843 6.47092 14.6424 6.66422L13.5971 7.25563C13.6312 7.50218 13.6484 7.75197 13.6484 8.0038C13.6484 8.25345 13.6315 8.50109 13.598 8.74557L14.6422 9.33567C14.9843 9.52908 15.1016 9.95743 14.904 10.2924L13.4798 12.7076C13.2822 13.0426 12.8447 13.1573 12.5026 12.9639L11.4605 12.3748C11.0572 12.6813 10.6131 12.9333 10.14 13.1231L10.1396 14.2996C10.1396 14.6864 9.81933 15 9.42424 15H6.57575C6.18067 15 5.86038 14.6864 5.86038 14.3L5.85951 13.1229C5.38662 12.9332 4.94279 12.6813 4.53968 12.375L3.49742 12.9639C3.15526 13.1573 2.71775 13.0426 2.52021 12.7076L1.09596 10.2924C0.898417 9.95743 1.01565 9.52908 1.35782 9.33567L2.40198 8.74549C2.36848 8.50104 2.35155 8.25342 2.35155 8.0038C2.35155 7.752 2.36878 7.50224 2.40286 7.25571L1.3578 6.66433C1.01565 6.47092 0.898417 6.04257 1.09596 5.70759L2.52021 3.29241C2.71775 2.95742 3.15526 2.84265 3.49704 3.03584L4.54616 3.6277C4.86727 3.38444 5.21413 3.17566 5.58084 3.00527L5.85951 2.88473L5.86038 1.70038C5.86038 1.31357 6.18067 1 6.57575 1H9.42424ZM9.11775 2.00054H6.88212L6.88094 3.59268L6.53222 3.70681C5.94351 3.89946 5.40132 4.20707 4.93675 4.60925L4.66151 4.84753L3.25208 4.05241L2.13422 5.94804L3.53958 6.74332L3.46634 7.09601C3.4048 7.39238 3.37351 7.69597 3.37351 8.0038C3.37351 8.30976 3.40442 8.61153 3.46523 8.9062L3.53797 9.25872L2.13422 10.0521L3.25197 11.9474L4.65565 11.1542L4.93118 11.3935C5.39696 11.7981 5.94114 12.1074 6.53222 12.3008L6.88094 12.4149L6.88212 13.9995H9.11775L9.11826 12.4151L9.4672 12.301C10.0586 12.1075 10.6031 11.7981 11.069 11.3933L11.3446 11.154L12.7481 11.9474L13.8658 10.0521L12.462 9.25884L12.5347 8.90629C12.5956 8.6116 12.6265 8.3098 12.6265 8.0038C12.6265 7.69594 12.5952 7.39232 12.5336 7.09592L12.4604 6.7432L13.8658 5.94802L12.7479 4.05247L11.3388 4.84785L11.0635 4.60947C10.5987 4.20705 10.0562 3.8993 9.4672 3.70662L9.11826 3.59248L9.11775 2.00054ZM8 5.2007C9.54601 5.2007 10.7993 6.45399 10.7993 8C10.7993 9.54601 9.54601 10.7993 8 10.7993C6.45399 10.7993 5.2007 9.54601 5.2007 8C5.2007 6.45399 6.45399 5.2007 8 5.2007ZM8 6.2007C7.00627 6.2007 6.2007 7.00627 6.2007 8C6.2007 8.99373 7.00627 9.7993 8 9.7993C8.99373 9.7993 9.7993 8.99373 9.7993 8C9.7993 7.00627 8.99373 6.2007 8 6.2007Z" />
</svg>
