<svg width="16" height="16" viewBox="0 0 16 16"  xmlns="http://www.w3.org/2000/svg">
<path opacity="0.8"  clip-rule="evenodd" d="M11 2C11.5523 2 12 2.44772 12 3V4H14.0574C14.5585 4 14.9823 4.371 15.0486 4.86777L15.849 10.8678C15.922 11.4152 15.5374 11.9182 14.99 11.9912C14.9461 11.9971 14.902 12 14.8577 12H14C14 13.1046 13.1046 14 12 14C10.9456 14 10.0818 13.1841 10.0055 12.1493L10 12H6C6 13.1046 5.10457 14 4 14C2.94564 14 2.08183 13.1841 2.00549 12.1493L2 12C1.44772 12 1 11.5523 1 11V3C1 2.44772 1.44772 2 2 2H11ZM12 11C11.4477 11 11 11.4477 11 12C11 12.5523 11.4477 13 12 13C12.5523 13 13 12.5523 13 12C13 11.4477 12.5523 11 12 11ZM4 11C3.44772 11 3 11.4477 3 12C3 12.5523 3.44772 13 4 13C4.55228 13 5 12.5523 5 12C5 11.4477 4.55228 11 4 11ZM14.457 8H12V10C12.6856 10 13.2906 10.345 13.651 10.8708L13.7318 10.9989L14.8577 11L14.457 8ZM14.0574 5H12V7H14.324L14.0574 5ZM11 3H2V11L2.26761 10.9999L2.25952 11.014C2.60329 10.4085 3.25394 10 4 10C4.68906 10 5.29672 10.3485 5.6564 10.8788L5.73239 10.9999H10.2676L10.2595 11.014C10.4085 10.7516 10.6151 10.5262 10.8621 10.355L10.9999 10.2676L11 3Z" />
</svg>
