<svg width="16" height="16" viewBox="0 0 16 16"  xmlns="http://www.w3.org/2000/svg">
<path d="M12.3234 1.97156C12.7088 1.97156 13.0596 2.18735 13.237 2.52682L13.2724 2.60142L14.9977 5.98333L14.9936 5.98456L14.9977 14.0034C14.9977 14.5517 14.5764 15.0009 14.0421 15.0406L13.965 15.0434H2.03294C1.48852 15.0434 1.04249 14.6192 1.00307 14.0811L1.00024 14.0034L0.996582 5.98333L2.76074 2.59852C2.91338 2.2433 3.24799 2.005 3.62672 1.97481L3.70851 1.97156H12.3234ZM10.5983 11.3004C10.5983 11.444 10.4827 11.5604 10.3401 11.5604C10.2875 11.5604 10.2362 11.5443 10.193 11.5141L8.0165 9.99445L5.84001 11.5141C5.72284 11.5959 5.56198 11.5666 5.48074 11.4486C5.45079 11.4051 5.43474 11.3534 5.43474 11.3004L5.43458 7.02256L2.02884 7.02333L2.03294 14.0034H13.965L13.9612 7.02333H10.5983V11.3004ZM9.56555 3.01156H6.46744V9.81014L8.0165 8.72895L9.56555 9.81066V3.01156ZM12.3234 3.01156H10.5976L10.5983 5.98333L13.8396 5.98256L12.3234 3.01156ZM5.43458 5.98256V3.01156H3.70851L2.11258 5.98256H5.43458Z" />
</svg>
