<svg width="16" height="16" viewBox="0 0 16 16"  xmlns="http://www.w3.org/2000/svg">
<path  clip-rule="evenodd" d="M12.5116 2C12.8701 2 13.1862 2.22091 13.3465 2.59514C13.6671 3.56869 13.9981 4.5551 14.3374 5.54857L14.9089 7.20443C14.9754 7.42014 15.0057 7.63885 14.9993 7.85074C15.0008 8.84499 14.3697 9.69343 13.5008 9.93269L13.5 13.9936C13.5 14.5459 13.0523 14.9936 12.5 14.9936H4.5C3.94772 14.9936 3.5 14.5459 3.5 13.9936L3.50025 9.93266C2.63175 9.69367 2.00068 8.84768 2.00086 7.86595C1.99437 7.64223 2.02481 7.42118 2.08783 7.21424L2.66427 5.55645C3.00934 4.55562 3.34785 3.55831 3.68445 2.55232C3.82843 2.22091 4.14453 2 4.503 2H12.5116ZM11.5007 9.27324C11.136 9.71772 10.6019 10 10.0007 10C9.45953 10 8.97281 9.77135 8.61504 9.4016L8.50065 9.27324L8.38627 9.4016C8.02849 9.77135 7.54178 10 7.00065 10C6.3994 10 5.86533 9.71772 5.50065 9.27324C5.24125 9.5894 4.89615 9.8235 4.50212 9.93231L4.5 13.9936H12.5L12.4992 9.93231C12.1052 9.8235 11.7601 9.5894 11.5007 9.27324ZM12.4291 3H4.58727L4.22238 4.0868C3.97657 4.81433 3.7255 5.54821 3.46838 6.29061L3.04155 7.51785C3.01083 7.62502 2.99739 7.73364 3.00065 7.85146C3.00065 8.42886 3.36911 8.89376 3.83513 8.98409C4.07084 8.96001 4.29486 8.89791 4.50124 8.80344L4.50148 8.84472C4.79721 8.64743 5.00065 8.2805 5.00065 7.85146C5.00065 7.1848 6.00065 7.1848 6.00065 7.85146C6.00065 8.49577 6.45945 9 7.00065 9C7.54185 9 8.00065 8.49577 8.00065 7.85146C8.00065 7.1848 9.00065 7.1848 9.00065 7.85146C9.00065 8.49577 9.45946 9 10.0007 9C10.5419 9 11.0007 8.49577 11.0007 7.85146C11.0007 7.1848 12.0007 7.1848 12.0007 7.85146C12.0007 8.2805 12.2041 8.64743 12.4998 8.84472L12.4999 8.80332C12.7061 8.89773 12.9299 8.95983 13.165 8.98321C13.6321 8.89363 14.0002 8.42747 13.9996 7.8369C14.0027 7.72947 13.9893 7.62347 13.9556 7.50899L13.6039 6.49158C13.1929 5.29731 12.7986 4.12639 12.4291 3Z" />
</svg>
