<svg width="16" height="16" viewBox="0 0 16 16"  xmlns="http://www.w3.org/2000/svg">
<g id="3.&#231;&#138;&#182;&#230;&#128;&#129;&#229;&#155;&#190;&#230;&#160;&#135;/16x16/success-s">
<path id="Exclude"  d="M8 1C11.866 1 15 4.13401 15 8C15 11.866 11.866 15 8 15C4.13401 15 1 11.866 1 8C1 4.13401 4.13401 1 8 1ZM11.1464 5.92871L7.09723 9.97792L4.85355 7.73424C4.65829 7.53898 4.34171 7.53898 4.14645 7.73424C3.95118 7.9295 3.95118 8.24609 4.14645 8.44135L6.74368 11.0386C6.93894 11.2338 7.25553 11.2338 7.45079 11.0386L11.8536 6.63582C12.0488 6.44055 12.0488 6.12397 11.8536 5.92871C11.6583 5.73345 11.3417 5.73345 11.1464 5.92871Z" />
</g>
</svg>
