<svg width="16" height="16" viewBox="0 0 16 16"  xmlns="http://www.w3.org/2000/svg">
<path  clip-rule="evenodd" d="M8 1C11.866 1 15 4.13401 15 8C15 11.866 11.866 15 8 15C4.13401 15 1 11.866 1 8C1 4.13401 4.13401 1 8 1ZM8 2C4.68629 2 2 4.68629 2 8C2 11.3137 4.68629 14 8 14C11.3137 14 14 11.3137 14 8C14 4.68629 11.3137 2 8 2ZM7.09723 9.69566L11.1464 5.64645C11.3417 5.45118 11.6583 5.45118 11.8536 5.64645C12.0271 5.82001 12.0464 6.08944 11.9114 6.28431L11.8536 6.35355L7.45079 10.7563C7.27722 10.9299 7.0078 10.9492 6.81293 10.8142L6.74368 10.7563L4.14645 8.15909C3.95118 7.96382 3.95118 7.64724 4.14645 7.45198C4.32001 7.27841 4.58944 7.25913 4.78431 7.39412L4.85355 7.45198L7.09723 9.69566L11.1464 5.64645L7.09723 9.69566Z" />
</svg>
