<svg width="16" height="16" viewBox="0 0 16 16"  xmlns="http://www.w3.org/2000/svg">
<path  clip-rule="evenodd" d="M3.65971 3L12.3168 3L14.7124 6.93899L7.98827 13.6646L1.26272 6.93905L3.65971 3ZM13.1712 2.48037C12.9898 2.18208 12.6659 2 12.3168 2H3.65971C3.31067 2 2.98689 2.18199 2.80545 2.48016L0.408452 6.41921C0.168705 6.8132 0.229495 7.32004 0.555609 7.64616L7.28116 14.3717C7.67171 14.7623 8.30494 14.7622 8.69545 14.3716L15.4196 7.64602C15.7456 7.31996 15.8064 6.81329 15.5668 6.41936L13.1712 2.48037ZM4.59529 7.37393C4.38874 7.58048 4.38877 7.91538 4.59537 8.12188L7.96963 11.4946C7.97997 11.5049 7.99672 11.5049 8.00707 11.4946L11.3811 8.1236C11.5878 7.91711 11.5879 7.58213 11.3813 7.37555C11.1748 7.16906 10.8401 7.16902 10.6335 7.37544L7.98834 10.0191L5.34315 7.37393C5.13663 7.16742 4.8018 7.16742 4.59529 7.37393Z" />
</svg>
