<svg width="16" height="16" viewBox="0 0 16 16" fill="none" xmlns="http://www.w3.org/2000/svg">
<path fill-rule="evenodd" clip-rule="evenodd" d="M2 2C1.44772 2 1 2.44772 1 3V13C1 13.5523 1.44772 14 2 14H14C14.5523 14 15 13.5523 15 13V3C15 2.44772 14.5523 2 14 2H2ZM14 3H2V13H14V3Z" fill="black"/>
<path d="M4.72463 4.60812C4.50815 4.43668 4.19368 4.4732 4.02224 4.68968C3.8508 4.90616 3.88732 5.22063 4.1038 5.39207L4.72463 4.60812ZM6.2 6.41431L6.51041 6.80628C6.63017 6.71144 6.7 6.56707 6.7 6.41431C6.7 6.26155 6.63017 6.11717 6.51041 6.02233L6.2 6.41431ZM4.1038 7.43655C3.88732 7.60798 3.8508 7.92245 4.02224 8.13893C4.19368 8.35542 4.50815 8.39193 4.72463 8.22049L4.1038 7.43655ZM4.1038 5.39207L5.88959 6.80628L6.51041 6.02233L4.72463 4.60812L4.1038 5.39207ZM5.88959 6.02233L4.1038 7.43655L4.72463 8.22049L6.51041 6.80628L5.88959 6.02233Z" fill="black"/>
<rect x="7" y="8" width="3" height="1" rx="0.5" fill="black"/>
</svg>
