<svg width="16" height="16" viewBox="0 0 16 16"  xmlns="http://www.w3.org/2000/svg">
<g id="3.&#231;&#138;&#182;&#230;&#128;&#129;&#229;&#155;&#190;&#230;&#160;&#135;/16x16/time-s">
<path id="Exclude"  clip-rule="evenodd" d="M8 1C11.866 1 15 4.13401 15 8C15 11.866 11.866 15 8 15C4.13401 15 1 11.866 1 8C1 4.13401 4.13401 1 8 1ZM8 3.5C7.75454 3.5 7.55039 3.67688 7.50806 3.91012L7.5 4V8C7.5 8.24546 7.67688 8.44961 7.91012 8.49194L8 8.5H11C11.2761 8.5 11.5 8.27614 11.5 8C11.5 7.75454 11.3231 7.55039 11.0899 7.50806L11 7.5H8.5V4C8.5 3.72386 8.27614 3.5 8 3.5Z" />
</g>
</svg>
