<svg width="16" height="16" viewBox="0 0 16 16" fill="none" xmlns="http://www.w3.org/2000/svg">
<path fill-rule="evenodd" clip-rule="evenodd" d="M2 4C1.72386 4 1.5 3.77614 1.5 3.5C1.5 3.22386 1.72386 3 2 3L6 2.999V2C6 1.44772 6.44772 1 7 1H10C10.5523 1 11 1.44772 11 2V2.999L15 3C15.2761 3 15.5 3.22386 15.5 3.5C15.5 3.77614 15.2761 4 15 4H14V14C14 14.5523 13.5523 15 13 15H4C3.44772 15 3 14.5523 3 14V4H2ZM13 4H4V14H13V4ZM10.5 7C10.7761 7 11 7.22386 11 7.5V11.5C11 11.7761 10.7761 12 10.5 12C10.2239 12 10 11.7761 10 11.5V7.5C10 7.22386 10.2239 7 10.5 7ZM6.5 7C6.77614 7 7 7.22386 7 7.5V11.5C7 11.7761 6.77614 12 6.5 12C6.22386 12 6 11.7761 6 11.5V7.5C6 7.22386 6.22386 7 6.5 7ZM8.5 6C8.77614 6 9 6.22386 9 6.5V11.5C9 11.7761 8.77614 12 8.5 12C8.22386 12 8 11.7761 8 11.5V6.5C8 6.22386 8.22386 6 8.5 6ZM10 2H7V2.999H10V2Z" fill="black"/>
</svg>
