<svg width="16" height="16" viewBox="0 0 16 16"  xmlns="http://www.w3.org/2000/svg">
<path  d="M10.4196 9.25001C10.7648 9.25001 11.0446 9.52983 11.0446 9.87501C11.0446 10.0478 10.9731 10.2128 10.8471 10.331L8.42754 12.5993C8.18713 12.8247 7.81303 12.8247 7.57262 12.5993L5.15311 10.331C4.90129 10.0949 4.88853 9.69937 5.12461 9.44755C5.24276 9.32152 5.40781 9.25001 5.58057 9.25001H10.4196ZM8.42754 3.40076L10.8471 5.66905C11.0989 5.90513 11.1116 6.30066 10.8756 6.55248C10.7574 6.67851 10.5923 6.75001 10.4196 6.75001H5.58057C5.23539 6.75001 4.95557 6.47019 4.95557 6.12501C4.95557 5.95226 5.02707 5.78721 5.15311 5.66905L7.57262 3.40076C7.81303 3.17537 8.18713 3.17537 8.42754 3.40076Z" />
</svg>
