<svg width="16" height="16" viewBox="0 0 16 16"  xmlns="http://www.w3.org/2000/svg">
<path  clip-rule="evenodd" d="M11.8368 9.88497L13.3224 8.39942C14.9024 6.81936 14.9024 4.25757 13.3224 2.67751C11.7423 1.09745 9.18054 1.09745 7.60048 2.67751L6.11493 4.16306L6.82203 4.87017L8.30758 3.38462C9.49712 2.19508 11.4257 2.19508 12.6153 3.38462C13.8048 4.57415 13.8048 6.50277 12.6153 7.69231L11.1297 9.17786L11.8368 9.88497ZM9.99068 11.7311L9.28357 11.024L7.69219 12.6154C6.50266 13.8049 4.57404 13.8049 3.3845 12.6154C2.19497 11.4259 2.19497 9.49723 3.3845 8.3077L4.97588 6.71632L4.26877 6.00921L2.67739 7.60059C1.09733 9.18065 1.09734 11.7424 2.6774 13.3225C4.25745 14.9026 6.81924 14.9026 8.3993 13.3225L9.99068 11.7311Z" />
<rect x="2.46191" y="3.07693" width="0.870285" height="14.7949" transform="rotate(-45 2.46191 3.07693)" />
</svg>
