<svg width="16" height="16" viewBox="0 0 16 16" fill="none" xmlns="http://www.w3.org/2000/svg">
<path fill-rule="evenodd" clip-rule="evenodd" d="M8 1C11.866 1 15 4.13401 15 8C15 11.866 11.866 15 8 15C4.13401 15 1 11.866 1 8C1 4.13401 4.13401 1 8 1ZM3.41851 4.12553C2.53359 5.17088 2 6.52313 2 8C2 11.3137 4.68629 14 8 14C9.47687 14 10.8291 13.4664 11.8745 12.5815L10.1213 10.8283L10.8284 10.1212L12.5816 11.8744C13.4664 10.829 14 9.47683 14 8C14 4.68629 11.3137 2 8 2C6.52317 2 5.17096 2.53356 4.12563 3.41843L5.87867 5.17147L5.17156 5.87858L3.41851 4.12553ZM12.2646 12.2205L12.2205 12.2646C12.2353 12.25 12.25 12.2353 12.2646 12.2205ZM6.58577 7.29279L7.29288 6.58569L9.4142 8.70701L8.70709 9.41411L6.58577 7.29279Z" fill="black"/>
</svg>
