<svg width="16" height="16" viewBox="0 0 16 16" fill="none" xmlns="http://www.w3.org/2000/svg">
<path fill-rule="evenodd" clip-rule="evenodd" d="M8.78292 7.58158L8.85236 7.6392L10.8973 9.67045C11.0932 9.86505 11.0943 10.1816 10.8997 10.3776C10.7267 10.5517 10.4574 10.5719 10.262 10.4376L10.1926 10.3799L8.99938 9.19494L9 13.531C9 13.8071 8.77614 14.031 8.5 14.031C8.22386 14.031 8 13.8071 8 13.531L7.99938 9.20594L6.83712 10.3776C6.66414 10.5517 6.39478 10.5719 6.19946 10.4376L6.13002 10.3799C5.95587 10.2069 5.93568 9.93759 6.07002 9.74227L6.12764 9.67283L8.14526 7.64158C8.29662 7.4892 8.52177 7.45469 8.70654 7.53845L8.78292 7.58158ZM8.5 1.97316C10.8791 1.97316 12.827 3.81941 12.9891 6.15733C14.4403 6.58304 15.5 7.92513 15.5 9.51473C15.5 11.369 14.058 12.8865 12.2342 13.007V13.0142H12C11.7239 13.0142 11.5 12.7903 11.5 12.5142C11.5 12.2374 11.7233 12.0125 12 12.0104L12.1683 12.0092C13.4759 11.9228 14.5 10.833 14.5 9.51473C14.5 8.3982 13.7613 7.42601 12.7076 7.1169L12.0396 6.92095L11.9915 6.2265C11.8649 4.40045 10.3414 2.97316 8.5 2.97316C6.65874 2.97316 5.13517 4.40033 5.0088 6.22543L4.96074 6.91954L4.29321 7.11576C3.23875 7.42574 2.5 8.39818 2.5 9.51473C2.5 10.8954 3.61929 12.0147 5 12.0147C5.24518 12.0144 5.4493 12.1909 5.49185 12.4238L5.5 12.5142C5.5 12.7597 5.3232 12.964 5.0899 13.0066L5 13.0147C3.067 13.0147 1.5 11.4477 1.5 9.51473C1.5 7.92513 2.5597 6.58304 4.01119 6.15636C4.173 3.81941 6.12089 1.97316 8.5 1.97316Z" fill="black"/>
</svg>
