<svg width="16" height="16" viewBox="0 0 16 16"  xmlns="http://www.w3.org/2000/svg">
<path  clip-rule="evenodd" d="M14.5069 9.00825C14.7524 9.00825 14.9565 9.18512 14.9989 9.41837L15.0069 9.50825V13.5086C15.0069 13.754 14.83 13.9582 14.5968 14.0005L14.5069 14.0086H1.5C1.25454 14.0086 1.05039 13.8317 1.00806 13.5985L1 13.5086V9.50825C1 9.2321 1.22386 9.00825 1.5 9.00825C1.74546 9.00825 1.94961 9.18512 1.99194 9.41837L2 9.50825V13.0086H14.0069V9.50825C14.0069 9.2321 14.2308 9.00825 14.5069 9.00825ZM7.99981 11.3308C7.74221 11.3308 7.53314 11.1222 7.53314 10.8641V3.73017L5.53441 6.06257C5.35007 6.24597 5.05187 6.24597 4.86847 6.06257C4.68414 5.87824 4.68414 5.5805 4.86847 5.39617L7.66567 2.13277L7.68294 2.1253C7.74279 2.06965 7.81682 2.02975 7.8995 2.01151L7.98767 2.00024C8.11274 1.9965 8.23874 2.0371 8.33441 2.13277L11.1316 5.39617C11.3155 5.5805 11.3155 5.87824 11.1316 6.06257C10.9477 6.24597 10.6495 6.24597 10.4657 6.06257L8.46647 3.73017V10.8641C8.46647 11.1222 8.25787 11.3308 7.99981 11.3308Z" />
</svg>
