<svg width="16" height="16" viewBox="0 0 16 16"  xmlns="http://www.w3.org/2000/svg">
<path  d="M8 1C10.2091 1 12 2.79086 12 5C12 6.42799 11.2517 7.68121 10.1259 8.38894C12.3903 9.24574 14 11.4349 14 14V14.5C14 14.7761 13.7761 15 13.5 15C13.2239 15 13 14.7761 13 14.5V14C13 11.2386 10.7614 9 8 9C5.23858 9 3 11.2386 3 14V14.5C3 14.7761 2.77614 15 2.5 15C2.22386 15 2 14.7761 2 14.5V14C2 11.4349 3.60967 9.24574 5.87401 8.38755C4.74828 7.68121 4 6.42799 4 5C4 2.79086 5.79086 1 8 1ZM8 2C6.34315 2 5 3.34315 5 5C5 6.65685 6.34315 8 8 8C9.65685 8 11 6.65685 11 5C11 3.34315 9.65685 2 8 2Z" />
</svg>
