<svg width="16" height="16" viewBox="0 0 16 16"  xmlns="http://www.w3.org/2000/svg">
<path  d="M8 3C11.2769 3 14.251 4.73532 15.864 7.49527C16.0461 7.80701 16.0461 8.19276 15.8639 8.50449C14.2503 11.2649 11.2767 13 8 13C4.72361 13 1.74985 11.2652 0.136704 8.50586C-0.0454653 8.19425 -0.0455748 7.80866 0.136417 7.49695C1.74852 4.73582 4.72262 3 8 3ZM8 4C5.00863 4 2.39684 5.60872 1 8.00116C2.39756 10.3917 5.00904 12 8 12C10.991 12 13.6024 10.3917 15.0006 7.99984C13.6032 5.60872 10.9914 4 8 4ZM8 4.5C9.933 4.5 11.5 6.067 11.5 8C11.5 9.933 9.933 11.5 8 11.5C6.067 11.5 4.5 9.933 4.5 8C4.5 6.067 6.067 4.5 8 4.5ZM8 5.5C6.61929 5.5 5.5 6.61929 5.5 8C5.5 9.38071 6.61929 10.5 8 10.5C9.38071 10.5 10.5 9.38071 10.5 8C10.5 6.61929 9.38071 5.5 8 5.5Z" />
</svg>
