<svg width="16" height="16" viewBox="0 0 16 16" fill="none" xmlns="http://www.w3.org/2000/svg">
<path fill-rule="evenodd" clip-rule="evenodd" d="M11 2C11.5523 2 12 2.44772 12 3V4H13.859C14.1377 4 14.3051 4.03232 14.48 4.12588C14.6486 4.21605 14.7839 4.35137 14.8741 4.51999C14.9677 4.69493 15 4.86228 15 5.14097V13.859C15 14.1377 14.9677 14.3051 14.8741 14.48C14.7839 14.6486 14.6486 14.7839 14.48 14.8741C14.3051 14.9677 14.1377 15 13.859 15H4.42291C3.73782 15 3.39171 14.9332 3.03157 14.7406C2.69999 14.5632 2.43677 14.3 2.25944 13.9684C2.06684 13.6083 2 13.2622 2 12.5771V3.5C2 2.67157 2.67157 2 3.5 2H11ZM3.00029 4.91475L3 12.5771C3 13.1112 3.03672 13.3014 3.14126 13.4968C3.22539 13.6541 3.34585 13.7746 3.50317 13.8587C3.69863 13.9633 3.88878 14 4.42291 14L13.9561 13.9991C13.9773 13.9985 13.989 13.9976 13.9963 13.9963L13.9991 13.9561L14 11H11.5C10.6716 11 10 10.3284 10 9.5C10 8.67157 10.6716 8 11.5 8H14L13.9991 5.0439C13.9985 5.02273 13.9976 5.01104 13.9963 5.0037L13.9561 5.00088L3.5 5C3.32479 5 3.1566 4.96996 3.00029 4.91475ZM14 9H11.5C11.2239 9 11 9.22386 11 9.5C11 9.77614 11.2239 10 11.5 10H14V9ZM11 3H3.5C3.22386 3 3 3.22386 3 3.5C3 3.77614 3.22386 4 3.5 4H11V3Z" fill="black"/>
</svg>
