<svg width="16" height="16" viewBox="0 0 16 16" fill="none" xmlns="http://www.w3.org/2000/svg">
<path fill-rule="evenodd" clip-rule="evenodd" d="M13.9974 2C13.9974 1.44772 13.5497 1 12.9974 1H1C0.447715 1 0 1.44772 0 2V11.665L0.00672773 11.7816C0.0644928 12.2789 0.487164 12.665 1 12.665L1.13916 12.6552C1.32268 12.6294 1.49641 12.553 1.64018 12.4332L3.373 10.989L12.9974 10.9898C13.5497 10.9898 13.9974 10.5421 13.9974 9.98981V2ZM1 2H12.9974V9.98981L3.01095 9.98897L1 11.663L0.99834 11.6074L1 2ZM4 11.001V12.001C4 12.5533 4.44772 13.001 5 13.001H11.9949L14.6719 14.5834C14.7774 14.62 14.8883 14.6388 15 14.6388C15.5523 14.6388 16 14.191 16 13.6388V4.001C16 3.44872 15.5523 3.001 15 3.001H14V4.001H15V13.6388L12.1636 12.001H5V11.001H4ZM9.90409 5.72333C9.75128 5.49331 9.44095 5.43072 9.21094 5.58352C7.54937 6.68733 5.93824 6.68733 4.27667 5.58352C4.04666 5.43072 3.73633 5.49331 3.58352 5.72333C3.43072 5.95334 3.49331 6.26367 3.72333 6.41648C5.72017 7.74301 7.76744 7.74301 9.76428 6.41648C9.9943 6.26367 10.0569 5.95334 9.90409 5.72333Z" fill="#333333"/>
</svg>
