<svg width="16" height="16" viewBox="0 0 16 16" fill="none" xmlns="http://www.w3.org/2000/svg">
<path fill-rule="evenodd" clip-rule="evenodd" d="M6.99512 0.996506C10.3088 0.996506 12.9951 3.6828 12.9951 6.99651C12.9951 8.47167 12.4628 9.8225 11.5797 10.8673L14.8585 14.1459C15.0538 14.3412 15.0538 14.6578 14.8585 14.853C14.6849 15.0266 14.4155 15.0459 14.2207 14.9109L14.1514 14.853L10.873 11.5751C9.82714 12.4618 8.47358 12.9965 6.99512 12.9965C3.68141 12.9965 0.995117 10.3102 0.995117 6.99651C0.995117 3.6828 3.68141 0.996506 6.99512 0.996506ZM6.99512 1.99651C4.23369 1.99651 1.99512 4.23508 1.99512 6.99651C1.99512 9.75793 4.23369 11.9965 6.99512 11.9965C9.75654 11.9965 11.9951 9.75793 11.9951 6.99651C11.9951 4.23508 9.75654 1.99651 6.99512 1.99651ZM6.99512 3.99651C7.27126 3.99651 7.49512 4.22036 7.49512 4.49651V6.49551L9.49512 6.49651C9.77126 6.49651 9.99512 6.72036 9.99512 6.99651C9.99512 7.27265 9.77126 7.49651 9.49512 7.49651L7.49512 7.49551V9.49651C7.49512 9.77265 7.27126 9.99651 6.99512 9.99651C6.71897 9.99651 6.49512 9.77265 6.49512 9.49651V7.49551L4.49512 7.49651C4.21897 7.49651 3.99512 7.27265 3.99512 6.99651C3.99512 6.72036 4.21897 6.49651 4.49512 6.49651L6.49512 6.49551V4.49651C6.49512 4.22036 6.71897 3.99651 6.99512 3.99651Z" fill="black"/>
</svg>
